 <svg  version="1.0" xmlns="http://www.w3.org/2000/svg"  width="768.000000pt" height="768.000000pt" viewBox="0 0 768.000000 768.000000"  preserveAspectRatio="xMidYMid meet">  <g transform="translate(0.000000,768.000000) scale(0.100000,-0.100000)" fill="#ffffff" stroke="none"> <path d="M1987 7666 c-4 -9 -27 -17 -64 -20 -92 -10 -255 -46 -348 -78 -16 -5 -43 -14 -60 -18 -36 -10 -109 -37 -133 -49 -9 -4 -35 -16 -57 -26 -44 -19 -43 -18 -156 -78 -269 -142 -521 -357 -725 -622 -36 -47 -117 -164 -128 -185 -4 -8 -22 -42 -41 -75 -34 -60 -64 -120 -92 -185 -9 -19 -20 -43 -24 -52 -12 -24 -39 -97 -49 -133 -4 -16 -13 -43 -18 -60 -30 -87 -62 -230 -81 -363 -15 -101 -15 -3683 0 -3784 19 -133 51 -276 81 -363 5 -16 14 -43 18 -60 10 -36 37 -109 49 -133 4 -9 15 -33 24 -52 26 -60 57 -123 81 -165 12 -22 31 -56 42 -75 170 -305 537 -660 850 -821 28 -14 69 -35 90 -46 22 -11 57 -28 79 -38 22 -10 48 -22 57 -26 24 -12 97 -39 133 -49 17 -4 44 -13 60 -18 87 -30 230 -62 363 -81 101 -15 3683 -15 3784 0 133 19 276 51 363 81 17 5 44 14 60 18 36 10 109 37 133 49 9 4 33 15 52 24 60 26 123 57 165 81 22 12 56 31 75 42 283 158 623 498 784 784 11 19 30 53 42 75 24 42 55 105 81 165 9 19 20 43 24 52 12 24 39 97 49 133 4 17 13 44 18 60 32 93 68 256 78 348 3 37 11 60 20 64 21 8 21 3678 0 3686 -9 4 -17 27 -20 64 -10 92 -46 255 -78 348 -5 17 -14 44 -18 60 -10 36 -37 109 -49 133 -4 9 -15 33 -24 52 -28 65 -58 125 -92 185 -19 33 -37 67 -41 75 -4 8 -28 44 -52 80 -168 245 -402 478 -642 635 -91 60 -218 128 -320 173 -19 8 -43 19 -52 23 -24 12 -97 39 -133 49 -16 4 -43 13 -60 18 -93 32 -256 68 -348 78 -37 3 -60 11 -64 20 -8 21 -3678 21 -3686 0z m1018 -1670 c65 -15 115 -37 153 -70 55 -47 1842 -1838 1869 -1873 43 -56 62 -101 72 -165 15 -106 -9 -198 -72 -281 -27 -35 -1815 -1827 -1868 -1872 -73 -62 -193 -93 -292 -74 -88 16 -138 42 -202 106 -63 63 -82 99 -100 192 -23 115 7 225 88 317 22 26 378 383 789 794 411 411 748 753 748 760 0 7 -337 349 -748 760 -411 411 -767 768 -789 794 -81 92 -111 202 -88 317 18 93 38 132 100 194 59 59 100 81 180 100 68 16 90 17 160 1z"/> </g> </svg> 