 <svg  version="1.0" xmlns="http://www.w3.org/2000/svg"  width="900.000000pt" height="735.000000pt" viewBox="0 0 900.000000 735.000000"  preserveAspectRatio="xMidYMid meet">  <g transform="translate(0.000000,735.000000) scale(0.100000,-0.100000)" fill="#ffffff" stroke="none"> <path d="M2950 7284 c-30 -7 -77 -18 -105 -24 -67 -15 -226 -63 -355 -107 -58 -20 -123 -42 -145 -50 -51 -17 -45 -15 -267 -123 -158 -77 -240 -121 -373 -203 -11 -6 -36 -24 -56 -39 -20 -16 -40 -28 -43 -28 -7 0 -142 -99 -232 -172 -78 -62 -275 -242 -354 -322 -45 -47 -53 -59 -44 -74 15 -25 394 -212 429 -212 8 0 16 -4 20 -10 3 -5 20 -14 38 -19 18 -5 77 -26 132 -46 55 -20 114 -40 130 -45 17 -5 62 -18 100 -30 191 -57 200 -58 208 -32 14 43 67 191 82 227 15 38 21 52 50 120 90 211 187 397 284 545 31 47 58 90 60 95 5 13 117 160 150 199 61 71 224 227 282 271 35 27 75 59 88 72 l24 23 -24 -1 c-13 0 -49 -7 -79 -15z"/> <path d="M4350 7295 c0 -11 35 -42 83 -74 108 -73 339 -319 429 -456 18 -27 35 -52 38 -55 8 -7 122 -194 161 -265 84 -155 164 -331 239 -535 17 -47 38 -100 46 -118 8 -18 14 -39 14 -47 0 -8 7 -15 15 -15 38 0 324 86 465 140 30 12 66 25 80 30 48 15 266 111 340 150 141 72 170 90 170 105 0 13 -229 239 -295 291 -27 21 -61 49 -75 62 -82 77 -353 268 -505 355 -65 37 -357 182 -440 218 -92 40 -392 135 -555 175 -169 43 -210 50 -210 39z"/> <path d="M3424 7196 c-251 -94 -436 -242 -660 -528 -24 -31 -44 -60 -44 -63 0 -4 -13 -24 -28 -44 -16 -20 -32 -43 -35 -51 -4 -8 -16 -28 -27 -45 -11 -16 -24 -39 -30 -50 -6 -11 -26 -47 -45 -80 -19 -33 -39 -70 -44 -81 -6 -12 -35 -74 -65 -138 -31 -64 -56 -123 -56 -131 0 -7 -4 -16 -10 -20 -5 -3 -14 -20 -19 -38 -5 -18 -19 -57 -31 -87 -65 -170 -66 -173 -15 -183 17 -3 82 -15 145 -27 63 -12 142 -26 175 -30 33 -4 101 -13 150 -19 50 -7 124 -17 165 -22 66 -9 281 -21 520 -30 41 -2 81 0 88 4 9 7 12 187 12 848 l0 839 -42 -1 c-24 0 -70 -11 -104 -23z"/> <path d="M3827 7213 c-4 -3 -7 -378 -7 -833 0 -646 3 -830 13 -842 11 -14 37 -14 274 -2 144 7 288 18 319 23 32 6 78 11 103 11 83 0 564 83 585 101 9 8 -29 124 -94 279 -251 604 -577 1023 -924 1190 -140 67 -247 96 -269 73z"/> <path d="M8474 6440 c-216 -4 -412 -12 -440 -18 -27 -6 -208 -13 -409 -16 -324 -5 -573 -16 -662 -31 -46 -8 -51 -37 -17 -88 32 -47 48 -73 64 -102 16 -30 61 -101 146 -232 19 -28 34 -54 34 -57 0 -3 11 -22 25 -42 14 -20 25 -44 25 -53 -1 -25 -65 -67 -630 -411 -146 -89 -310 -190 -365 -225 -55 -36 -109 -69 -120 -75 -11 -6 -32 -18 -47 -28 -15 -9 -59 -37 -98 -62 -39 -25 -82 -52 -95 -60 -13 -8 -56 -35 -95 -60 -39 -25 -83 -53 -98 -62 -15 -10 -36 -22 -47 -28 -11 -5 -54 -33 -95 -60 -41 -27 -84 -55 -95 -60 -11 -6 -32 -18 -47 -28 -15 -9 -59 -37 -98 -62 -39 -25 -82 -52 -95 -60 -13 -8 -65 -41 -117 -73 -51 -32 -149 -93 -218 -136 -69 -44 -189 -119 -268 -168 -79 -48 -154 -95 -167 -103 -13 -8 -56 -35 -95 -60 -39 -25 -82 -52 -95 -60 -13 -8 -67 -42 -120 -75 -53 -33 -107 -67 -120 -75 -13 -8 -67 -42 -120 -75 -53 -33 -106 -67 -119 -75 -32 -20 -163 -103 -184 -115 -9 -6 -30 -19 -45 -29 -42 -28 -28 -50 -242 369 -153 301 -170 324 -276 376 -58 29 -72 32 -154 32 -92 -1 -132 -13 -210 -63 -16 -11 -39 -24 -50 -30 -11 -5 -54 -33 -95 -60 -41 -27 -84 -55 -95 -60 -11 -6 -32 -18 -47 -28 -23 -14 -95 -60 -193 -122 -13 -8 -77 -48 -142 -88 -65 -40 -163 -102 -218 -137 -55 -35 -109 -69 -120 -75 -11 -6 -33 -19 -50 -30 -16 -11 -37 -23 -45 -27 -8 -4 -42 -25 -75 -48 -34 -23 -67 -44 -75 -48 -8 -4 -27 -15 -42 -25 -22 -14 -89 -56 -183 -115 -11 -6 -56 -35 -100 -63 -44 -28 -100 -63 -125 -78 -71 -43 -80 -48 -165 -102 -44 -28 -99 -62 -122 -75 -24 -13 -45 -30 -48 -38 -3 -8 13 -44 35 -80 23 -36 46 -75 53 -86 7 -11 35 -56 62 -100 46 -73 125 -201 150 -243 35 -59 49 -72 74 -72 15 0 32 5 38 11 6 6 20 16 32 23 17 9 92 56 186 116 13 8 67 42 120 75 53 33 107 67 120 75 13 8 67 42 120 75 53 33 107 67 120 75 13 8 77 48 142 88 65 40 163 102 218 137 55 36 109 69 120 75 11 6 32 18 47 28 15 9 70 44 123 77 53 33 109 68 123 77 118 75 177 107 184 100 3 -4 38 -68 76 -142 274 -535 272 -531 339 -580 92 -68 243 -92 330 -53 32 14 196 111 277 163 13 8 56 35 95 60 40 25 83 52 96 60 13 8 56 35 95 60 39 25 83 53 98 62 15 9 37 23 49 30 12 7 65 40 118 73 105 66 111 69 215 135 39 25 81 51 93 58 12 7 34 21 48 30 15 9 69 43 120 75 52 32 150 94 219 137 69 43 167 105 218 137 52 32 104 65 117 73 13 8 67 42 120 75 53 33 107 67 120 75 13 8 56 35 95 60 39 25 83 53 98 62 15 9 37 23 49 30 12 7 54 33 93 58 110 69 111 70 240 150 66 41 128 80 138 85 9 6 31 19 47 30 43 27 187 118 210 132 25 15 148 93 183 115 15 10 36 22 47 28 11 5 54 32 95 59 41 27 117 76 168 108 52 32 104 65 117 73 13 8 56 35 95 60 39 25 83 53 98 62 15 10 34 21 42 25 15 7 117 72 160 103 58 40 63 37 122 -52 85 -128 160 -245 217 -338 74 -122 87 -137 106 -125 20 12 56 76 222 395 62 118 136 257 166 310 20 36 73 136 172 325 143 273 164 312 185 350 12 22 50 92 83 155 33 63 75 144 94 178 42 78 39 93 -19 90 -24 -1 -219 -4 -434 -8z"/> <path d="M6528 5911 c-192 -112 -548 -264 -798 -340 -58 -17 -125 -38 -150 -45 -25 -8 -58 -17 -75 -21 -58 -13 -66 -35 -41 -116 7 -24 21 -78 30 -119 48 -217 53 -235 68 -238 9 -2 35 10 59 26 37 24 99 64 204 129 68 42 160 100 183 115 15 9 37 23 48 30 23 14 150 93 189 118 46 29 216 135 233 145 9 6 44 28 77 49 33 21 86 55 117 75 32 20 57 43 57 51 0 17 -109 172 -124 177 -6 2 -40 -15 -77 -36z"/> <path d="M762 5917 c-12 -13 -22 -27 -22 -32 0 -4 -18 -31 -41 -59 -54 -68 -163 -238 -194 -303 -14 -28 -31 -58 -39 -66 -16 -16 -122 -224 -156 -307 -13 -30 -34 -80 -48 -110 -14 -30 -29 -68 -33 -85 -4 -16 -23 -75 -42 -130 -62 -181 -100 -336 -136 -550 -28 -167 -53 -393 -49 -435 l3 -35 792 -3 792 -2 48 32 c95 62 93 58 93 182 0 115 19 351 46 561 39 308 82 532 164 854 12 47 4 59 -44 72 -22 6 -59 17 -81 24 -22 7 -67 20 -100 30 -33 10 -71 22 -85 28 -14 5 -38 13 -55 18 -29 7 -52 16 -165 59 -30 12 -66 25 -80 29 -14 5 -53 21 -85 36 -33 15 -85 39 -115 52 -95 43 -175 84 -293 150 -32 18 -51 16 -75 -10z"/> <path d="M2194 5408 c-9 -14 -30 -86 -43 -153 -5 -22 -13 -60 -19 -85 -59 -249 -117 -619 -132 -850 -5 -69 -12 -153 -16 -187 -7 -63 -7 -63 19 -63 14 0 28 4 31 8 3 5 70 48 148 96 79 48 188 116 243 151 231 148 288 169 455 169 91 -1 128 -5 177 -22 188 -65 282 -160 414 -419 39 -79 78 -143 86 -143 11 0 13 112 11 678 l-3 677 -70 7 c-38 3 -162 11 -275 18 -246 13 -561 50 -745 85 -241 47 -271 50 -281 33z"/> <path d="M5060 5403 c-148 -33 -199 -43 -226 -43 -15 0 -66 -7 -113 -15 -117 -20 -333 -42 -526 -54 -88 -6 -205 -14 -260 -17 -56 -4 -103 -12 -107 -18 -4 -6 -8 -300 -8 -654 0 -548 2 -643 14 -648 8 -3 52 19 98 48 46 30 116 74 156 98 40 25 84 52 96 60 13 8 66 41 117 73 52 32 150 94 219 137 69 44 167 105 218 137 51 32 104 65 117 73 13 8 67 42 120 75 53 33 106 67 119 75 13 8 66 41 119 73 52 32 98 65 101 73 3 8 1 38 -5 67 -27 134 -42 206 -54 257 -8 30 -17 69 -20 85 -3 17 -11 53 -19 80 -13 49 -14 50 -52 52 -21 0 -68 -5 -104 -14z"/> <path d="M7055 4553 c-97 -60 -188 -115 -201 -123 -12 -8 -66 -42 -119 -75 -53 -33 -107 -67 -120 -75 -343 -216 -433 -272 -600 -374 -82 -50 -142 -93 -137 -98 11 -11 1504 -10 1515 1 5 5 4 46 -3 98 -6 48 -15 133 -20 188 -9 108 -25 213 -42 285 -6 25 -14 65 -18 90 -17 106 -48 190 -70 190 -4 0 -87 -48 -185 -107z"/> <path d="M13 3533 c-22 -8 -16 -101 27 -403 31 -223 125 -600 176 -703 8 -16 14 -35 14 -42 0 -8 6 -29 14 -47 8 -18 29 -69 47 -113 31 -76 160 -334 208 -419 39 -69 132 -208 205 -308 83 -113 89 -115 181 -62 59 34 281 144 290 144 3 0 29 12 58 26 48 23 92 41 157 64 14 5 50 18 80 30 30 11 84 30 120 41 36 12 81 27 100 34 19 7 64 21 100 30 36 9 85 25 110 35 51 19 53 30 25 125 -25 89 -66 274 -91 415 -9 52 -18 105 -20 118 -6 32 -30 27 -109 -22 -38 -25 -123 -77 -188 -118 -65 -40 -129 -80 -142 -88 -101 -64 -245 -148 -268 -158 -64 -27 -169 -4 -231 51 -31 28 -136 181 -166 242 -6 11 -32 54 -59 95 -80 121 -207 332 -221 368 -17 44 -8 130 19 183 28 54 50 75 133 124 19 11 145 90 186 117 15 10 36 22 47 28 11 5 54 33 95 60 41 27 84 55 95 60 11 6 34 19 50 30 17 11 40 24 53 30 12 5 22 16 22 25 0 13 -64 15 -552 14 -304 0 -559 -3 -565 -6z"/> <path d="M5676 3532 c-3 -5 -8 -85 -11 -178 -6 -176 -28 -447 -46 -572 -6 -40 -14 -107 -19 -150 -5 -42 -14 -104 -20 -137 -6 -33 -18 -96 -26 -140 -25 -134 -45 -228 -60 -281 -8 -28 -14 -60 -14 -71 0 -11 -7 -37 -15 -56 -8 -20 -15 -49 -15 -65 0 -25 6 -32 43 -46 23 -9 49 -16 57 -16 8 0 35 -7 60 -15 25 -8 108 -36 185 -61 166 -55 266 -93 395 -152 25 -11 72 -32 105 -47 66 -29 83 -38 165 -83 112 -61 140 -73 150 -67 43 27 302 424 382 585 119 241 201 454 274 710 9 30 21 71 27 90 6 19 14 55 18 80 4 25 12 70 17 100 32 167 42 229 42 270 0 25 7 96 15 159 9 63 13 123 9 133 -5 17 -39 18 -859 18 -470 0 -856 -4 -859 -8z"/> <path d="M5320 3469 c-41 -26 -85 -54 -97 -61 -19 -11 -157 -97 -238 -148 -29 -18 -153 -96 -180 -113 -78 -48 -128 -80 -180 -113 -33 -21 -67 -42 -75 -47 -8 -4 -27 -15 -42 -25 -15 -9 -70 -44 -123 -77 -53 -33 -107 -67 -120 -75 -13 -8 -56 -35 -95 -60 -39 -25 -83 -53 -98 -62 -15 -9 -37 -23 -49 -30 -221 -130 -203 -98 -203 -353 0 -117 3 -220 6 -229 5 -13 25 -16 118 -16 179 0 642 -42 831 -76 44 -8 91 -14 104 -14 22 0 94 -14 234 -46 51 -12 72 -13 80 -5 11 11 30 73 46 151 5 25 14 65 21 90 31 129 62 291 84 445 9 61 21 142 27 180 5 39 14 128 20 199 5 71 14 170 19 220 14 136 13 316 -2 315 -7 0 -47 -23 -88 -50z"/> <path d="M2606 3042 c-3 -5 -49 -36 -101 -68 -53 -33 -107 -66 -120 -74 -13 -8 -56 -35 -95 -60 -39 -25 -83 -53 -98 -62 -15 -10 -34 -21 -42 -25 -12 -6 -93 -57 -109 -69 -13 -11 73 -467 124 -659 7 -27 16 -62 19 -76 8 -37 26 -41 99 -24 276 64 852 131 1182 138 l100 2 3 154 c2 105 -1 157 -8 161 -7 4 -28 1 -48 -6 -21 -8 -81 -13 -142 -13 -137 -1 -229 27 -335 100 -105 72 -156 142 -283 389 -74 145 -105 196 -120 198 -11 2 -23 -1 -26 -6z"/> <path d="M3375 1809 c-55 -4 -172 -12 -260 -18 -88 -6 -196 -15 -240 -21 -369 -49 -561 -83 -591 -105 -14 -10 -14 -15 -1 -45 14 -32 23 -56 61 -157 157 -419 393 -804 632 -1033 76 -73 183 -159 214 -173 8 -4 29 -16 45 -27 17 -11 40 -24 52 -30 13 -5 41 -18 63 -29 60 -29 186 -65 204 -58 14 6 16 95 16 845 0 638 -3 841 -12 850 -13 13 -32 13 -183 1z"/> <path d="M3830 1801 c-7 -13 -10 -297 -10 -851 0 -743 2 -831 16 -837 23 -9 159 34 253 80 261 127 505 384 719 755 31 55 151 296 177 357 17 38 72 178 92 230 8 22 21 55 29 73 20 47 17 61 -13 68 -16 3 -41 9 -58 14 -16 4 -77 15 -135 25 -58 9 -141 23 -185 31 -44 8 -99 14 -122 14 -23 0 -64 4 -90 10 -36 7 -590 50 -651 50 -6 0 -16 -9 -22 -19z"/> <path d="M1940 1593 c-25 -7 -58 -18 -75 -24 -16 -6 -52 -17 -80 -25 -27 -8 -63 -19 -80 -24 -78 -23 -276 -97 -360 -135 -120 -53 -157 -70 -205 -94 -173 -86 -183 -95 -151 -139 21 -30 130 -136 266 -259 339 -307 819 -583 1260 -724 55 -17 115 -38 133 -45 18 -8 40 -14 50 -14 9 0 37 -6 62 -14 54 -17 169 -43 228 -52 65 -10 54 13 -37 81 -107 78 -270 248 -378 392 -48 66 -93 128 -100 138 -185 302 -304 548 -408 843 -43 124 -40 122 -125 95z"/> <path d="M5356 1577 c-7 -19 -17 -45 -21 -58 -29 -99 -123 -323 -217 -514 -58 -117 -86 -169 -126 -230 -6 -11 -16 -29 -22 -40 -13 -29 -157 -233 -208 -296 -89 -109 -248 -265 -332 -325 -130 -91 -83 -96 205 -19 324 86 664 224 891 362 39 24 74 43 78 43 3 0 74 46 158 102 213 143 431 326 607 511 60 63 63 68 48 85 -25 27 -381 202 -411 202 -8 0 -17 4 -21 10 -3 5 -20 14 -38 19 -18 5 -57 19 -87 31 -30 12 -68 25 -85 30 -16 5 -46 14 -65 21 -19 6 -51 17 -70 24 -19 7 -62 20 -95 30 -33 10 -80 24 -104 31 -63 20 -69 18 -85 -19z"/> </g> </svg> 