 <svg  version="1.0" xmlns="http://www.w3.org/2000/svg"  width="148.000000pt" height="130.000000pt" viewBox="0 0 148.000000 130.000000"  preserveAspectRatio="xMidYMid meet">  <g transform="translate(0.000000,130.000000) scale(0.100000,-0.100000)" fill="#ffffff" stroke="none"> <path d="M578 1282 c-104 -11 -139 -57 -151 -197 l-2 -30 -165 -5 c-265 -8 -252 20 -248 -535 3 -405 3 -410 25 -441 43 -60 29 -59 708 -59 l620 0 36 23 c68 41 69 52 69 498 0 427 -1 434 -54 484 -27 24 -34 25 -194 30 l-167 5 -8 70 c-8 73 -23 104 -70 139 -24 18 -44 20 -180 22 -83 1 -182 -1 -219 -4z m337 -177 l0 -50 -175 0 -175 0 -3 39 c-6 69 -11 67 180 64 l173 -3 0 -50z m-141 -210 c3 -8 13 -15 23 -15 34 0 45 -14 33 -44 -9 -26 -13 -27 -54 -21 -56 9 -69 -9 -25 -33 103 -56 117 -105 49 -172 -43 -42 -78 -51 -100 -26 -6 8 -21 16 -33 18 -17 2 -23 11 -25 36 -4 36 5 39 57 21 27 -10 36 -9 48 4 14 14 11 19 -36 47 -56 35 -71 55 -71 96 0 59 116 135 134 89z m556 -121 c0 -151 5 -145 -72 -81 l-48 40 -48 -44 c-110 -101 -445 -394 -453 -397 -5 -2 -59 41 -121 96 l-112 99 -136 -118 c-74 -64 -144 -127 -154 -138 -11 -12 -23 -21 -28 -21 -4 0 -8 33 -8 74 l0 74 123 108 c67 60 138 123 157 141 19 18 39 33 43 33 5 0 56 -42 114 -92 57 -51 109 -95 114 -96 7 -3 287 235 414 350 6 6 -10 27 -45 58 l-55 49 158 1 157 0 0 -136z m-52 -160 l52 -46 0 -209 0 -210 -102 3 -103 3 -3 216 -2 216 40 37 c22 20 46 36 53 36 7 0 36 -21 65 -46z m-276 -306 l-4 -158 -99 0 -99 0 0 79 0 79 43 35 c23 19 67 58 97 86 30 27 58 47 61 43 3 -4 3 -78 1 -164z m-417 10 c91 -80 94 -84 94 -126 l1 -43 -102 3 -103 3 -3 123 c-2 82 1 122 8 122 6 0 53 -37 105 -82z m-227 -85 l-3 -78 -87 -3 c-49 -1 -88 1 -88 6 0 11 161 152 173 152 4 0 7 -35 5 -77z"/> </g> </svg> 