<?xml version="1.0" standalone="no"?>
<!DOCTYPE svg PUBLIC "-//W3C//DTD SVG 20010904//EN"
 "http://www.w3.org/TR/2001/REC-SVG-20010904/DTD/svg10.dtd">
<svg version="1.0" xmlns="http://www.w3.org/2000/svg"
 width="768.000000pt" height="768.000000pt" viewBox="0 0 768.000000 768.000000"
 preserveAspectRatio="xMidYMid meet">
<metadata>
Created by potrace 1.10, written by Peter Selinger 2001-2011
</metadata>
<g transform="translate(0.000000,768.000000) scale(0.100000,-0.100000)"
fill="#000000" stroke="none">
<path d="M3535 7670 c8 -13 -19 -18 -148 -30 -60 -5 -112 -12 -117 -15 -4 -3
-46 -9 -92 -15 -45 -5 -103 -14 -128 -21 -25 -6 -70 -17 -100 -24 -116 -28
-186 -47 -215 -56 -16 -6 -43 -15 -60 -19 -16 -5 -75 -25 -130 -45 -55 -20
-109 -39 -120 -42 -11 -3 -47 -18 -80 -33 -161 -74 -195 -90 -265 -124 -41
-21 -88 -46 -105 -56 -16 -11 -39 -24 -50 -30 -11 -6 -33 -19 -50 -30 -16 -11
-39 -24 -50 -30 -67 -34 -254 -164 -332 -230 -7 -6 -32 -24 -55 -40 -24 -16
-62 -46 -85 -67 -22 -21 -81 -74 -129 -118 -108 -98 -111 -101 -209 -209 -44
-48 -97 -107 -118 -129 -21 -23 -49 -58 -63 -77 -13 -19 -58 -80 -99 -135 -91
-123 -136 -188 -165 -240 -12 -22 -30 -53 -41 -70 -10 -16 -23 -39 -29 -50 -6
-11 -19 -33 -30 -50 -19 -31 -70 -132 -120 -240 -89 -193 -102 -226 -120 -290
-5 -16 -18 -55 -30 -85 -12 -30 -25 -68 -30 -85 -4 -16 -12 -41 -17 -55 -11
-27 -31 -102 -44 -165 -9 -44 -23 -103 -45 -181 -8 -28 -14 -66 -14 -85 0 -19
-6 -70 -14 -114 -27 -149 -36 -289 -36 -558 0 -265 7 -371 35 -557 8 -52 16
-111 18 -130 2 -19 10 -57 16 -85 7 -27 19 -76 27 -107 33 -135 46 -185 55
-213 6 -16 15 -43 19 -60 5 -16 25 -75 45 -130 20 -55 39 -109 42 -120 3 -11
19 -49 35 -85 17 -36 43 -92 58 -125 50 -108 101 -209 120 -240 11 -16 24 -39
30 -50 6 -11 19 -33 30 -50 11 -16 24 -39 30 -50 34 -67 164 -254 230 -332 6
-7 24 -32 40 -55 30 -44 51 -69 155 -180 33 -36 78 -84 101 -109 22 -24 85
-84 139 -134 54 -49 114 -105 134 -123 20 -19 52 -44 71 -58 19 -13 80 -58
135 -99 123 -91 188 -136 240 -165 22 -12 54 -30 70 -41 17 -10 39 -23 50 -29
11 -6 34 -19 50 -30 31 -19 130 -69 243 -121 182 -84 223 -101 287 -119 17 -5
55 -18 85 -30 30 -12 69 -25 85 -30 17 -4 41 -12 55 -17 27 -11 102 -31 165
-44 44 -9 103 -23 181 -45 28 -8 66 -14 85 -14 19 0 70 -6 114 -14 149 -27
289 -36 558 -36 265 0 371 7 557 35 52 8 111 16 130 18 19 2 58 10 85 16 28 7
75 19 105 26 116 28 186 47 215 56 17 6 44 15 60 19 17 5 75 25 130 45 55 20
109 39 120 42 11 3 48 18 83 34 34 16 90 42 125 58 112 52 211 102 242 121 17
11 39 24 50 30 11 6 34 19 50 30 17 11 39 24 50 30 67 34 254 164 332 230 7 6
32 24 55 40 24 16 62 46 85 67 22 21 81 74 129 118 108 99 112 102 205 206 42
46 88 95 101 109 28 28 290 376 301 400 4 8 16 29 27 45 11 17 24 39 30 50 6
11 19 34 30 50 11 17 24 39 30 50 6 11 19 34 29 50 20 31 34 57 106 210 87
183 114 248 135 320 4 17 18 55 30 85 12 30 25 69 30 85 5 17 13 44 18 60 13
39 31 110 41 160 4 22 12 56 18 75 22 71 43 169 43 204 0 19 6 63 14 98 8 35
17 104 21 153 7 103 13 128 26 120 5 -4 9 110 9 290 0 180 -4 294 -9 290 -13
-8 -19 17 -27 115 -3 47 -12 112 -20 145 -8 33 -14 77 -14 98 0 37 -20 135
-43 207 -6 19 -14 53 -18 75 -16 83 -54 215 -89 305 -12 30 -26 69 -30 85 -21
73 -46 133 -135 320 -75 159 -86 179 -106 210 -10 17 -23 39 -29 50 -6 11 -19
34 -30 50 -11 17 -24 39 -30 50 -6 11 -19 34 -30 50 -11 17 -23 37 -27 45 -16
34 -280 379 -329 430 -29 30 -65 69 -80 85 -85 95 -118 127 -328 318 -30 28
-69 58 -266 203 -87 64 -172 120 -210 137 -8 4 -28 16 -45 27 -16 11 -39 24
-50 30 -11 6 -33 19 -50 30 -31 19 -130 69 -242 121 -183 84 -224 101 -288
119 -16 5 -55 18 -85 30 -30 12 -68 25 -85 30 -16 4 -41 12 -55 17 -27 11
-102 31 -165 44 -44 9 -103 23 -181 45 -28 8 -67 14 -87 14 -20 0 -66 6 -104
14 -37 7 -108 17 -156 20 -96 8 -120 13 -111 27 3 5 -121 9 -296 9 -192 0
-299 -4 -295 -10z m-1017 -1850 c31 -14 149 -125 416 -392 335 -336 375 -379
390 -424 15 -46 15 -53 0 -99 -15 -42 -50 -81 -249 -282 -285 -286 -300 -309
-298 -453 1 -109 17 -151 100 -257 26 -34 77 -99 113 -145 35 -46 85 -105 110
-133 26 -27 75 -81 110 -120 92 -101 160 -168 290 -285 63 -57 126 -115 140
-128 14 -13 88 -72 165 -130 77 -58 148 -114 158 -123 54 -50 189 -94 259 -86
139 18 164 35 426 302 120 121 229 223 252 235 49 25 90 25 138 1 20 -11 208
-192 418 -403 416 -419 403 -401 387 -503 -5 -35 -23 -57 -142 -175 -135 -135
-250 -228 -326 -265 -22 -11 -46 -24 -54 -30 -51 -36 -245 -86 -391 -101 -73
-7 -284 20 -340 43 -14 6 -52 19 -85 28 -33 10 -78 24 -100 32 -22 9 -58 22
-80 30 -22 8 -53 21 -70 28 -16 7 -48 19 -70 28 -22 8 -47 18 -55 21 -8 3 -22
10 -30 15 -8 5 -22 12 -30 15 -8 3 -22 10 -30 15 -8 5 -37 20 -65 33 -63 31
-141 74 -180 99 -16 10 -39 23 -50 29 -51 27 -83 49 -285 197 -54 39 -116 83
-138 97 -21 13 -45 30 -53 38 -8 7 -52 47 -99 88 -179 156 -344 318 -508 497
-138 152 -419 538 -505 694 -12 22 -36 66 -54 97 -47 85 -75 143 -142 297 -23
51 -53 128 -95 243 -57 156 -72 436 -30 582 69 240 129 337 358 568 200 204
235 223 324 182z"/>
</g>
</svg>
