<?xml version="1.0" standalone="no"?>
<!DOCTYPE svg PUBLIC "-//W3C//DTD SVG 20010904//EN"
 "http://www.w3.org/TR/2001/REC-SVG-20010904/DTD/svg10.dtd">
<svg version="1.0" xmlns="http://www.w3.org/2000/svg"
 width="768.000000pt" height="768.000000pt" viewBox="0 0 768.000000 768.000000"
 preserveAspectRatio="xMidYMid meet">
<metadata>
Created by potrace 1.10, written by Peter Selinger 2001-2011
</metadata>
<g transform="translate(0.000000,768.000000) scale(0.100000,-0.100000)"
fill="#000000" stroke="none">
<path d="M2054 7591 c-41 -25 -41 -25 -65 -123 -26 -103 -73 -189 -136 -248
-84 -79 -134 -105 -258 -136 -104 -25 -145 -80 -112 -150 19 -38 80 -74 126
-74 28 0 83 -19 121 -41 8 -5 25 -13 37 -19 37 -16 139 -122 168 -175 29 -52
65 -164 65 -201 0 -11 13 -32 28 -47 22 -21 38 -27 74 -27 42 0 50 4 77 37 20
24 31 49 31 68 0 80 86 235 168 303 56 47 171 102 211 102 77 0 136 50 136
115 0 63 -27 87 -123 110 -186 45 -310 154 -374 330 -10 27 -18 61 -18 76 0
37 -27 82 -63 102 -37 22 -55 21 -93 -2z m113 -489 c20 -24 58 -59 85 -78 26
-20 48 -41 48 -47 0 -7 -25 -32 -54 -57 -30 -24 -74 -68 -97 -97 -39 -50 -59
-64 -59 -44 0 11 -127 141 -163 167 -33 23 -29 42 13 67 16 10 60 51 97 93 62
68 69 73 81 57 7 -10 29 -37 49 -61z"/>
<path d="M4179 7350 c-60 -16 -83 -26 -129 -52 -8 -4 -22 -11 -30 -15 -55 -24
-146 -109 -235 -218 -82 -101 -162 -159 -256 -188 -65 -20 -192 -22 -288 -6
-146 26 -347 -25 -474 -121 -140 -105 -228 -238 -269 -404 -20 -82 -20 -117
-2 -344 15 -182 -53 -313 -241 -460 -53 -41 -148 -144 -170 -184 -76 -136 -90
-192 -89 -358 0 -122 4 -155 22 -207 46 -129 118 -232 234 -328 114 -95 143
-123 166 -159 64 -100 88 -190 78 -303 -18 -214 -19 -254 -2 -326 15 -63 23
-88 50 -157 4 -8 15 -28 26 -45 11 -16 23 -37 27 -45 9 -18 49 -66 88 -104 84
-81 164 -131 268 -168 58 -21 77 -22 309 -20 l247 2 73 -34 c87 -41 141 -86
206 -169 93 -122 208 -216 312 -255 67 -25 195 -51 255 -52 67 0 191 24 245
47 146 64 210 115 325 258 65 82 121 130 192 166 l68 34 255 0 c236 0 260 2
316 22 221 79 387 251 451 467 22 75 27 207 13 329 -10 85 -10 120 -1 170 24
121 84 216 189 298 75 59 199 183 213 214 5 11 19 38 32 60 71 128 91 370 41
515 -48 140 -108 217 -319 407 -44 40 -84 81 -90 92 -68 133 -84 209 -67 325
34 238 -1 403 -121 565 -119 158 -274 248 -468 272 -74 9 -111 9 -155 1 -92
-19 -231 -15 -294 7 -95 34 -123 52 -195 129 -244 260 -297 300 -458 342 -94
25 -255 25 -348 0z m307 -206 c101 -32 188 -95 260 -187 73 -94 104 -125 164
-171 66 -51 163 -98 246 -120 71 -19 241 -21 329 -5 81 15 201 -4 277 -44 108
-56 201 -165 242 -285 15 -45 17 -72 12 -165 -3 -62 -8 -138 -12 -170 -13
-118 19 -244 104 -403 19 -35 136 -152 214 -213 76 -59 125 -121 159 -201 21
-49 24 -69 23 -185 -1 -136 0 -131 -59 -246 -5 -11 -46 -52 -89 -92 -220 -199
-264 -255 -319 -402 -25 -65 -40 -178 -33 -241 3 -33 9 -109 12 -170 7 -116
-3 -165 -52 -264 -29 -59 -144 -164 -220 -201 l-69 -34 -244 3 c-270 3 -277 2
-421 -66 -78 -37 -111 -67 -310 -279 -83 -87 -112 -107 -210 -142 -67 -23
-163 -25 -242 -5 -126 32 -189 78 -303 220 -82 102 -173 178 -265 220 -101 46
-158 56 -304 53 -298 -7 -335 -4 -407 30 -35 17 -87 51 -116 76 -49 43 -133
161 -133 187 0 7 -7 31 -15 53 -17 48 -19 152 -4 226 25 130 -4 325 -63 431
-39 70 -128 174 -186 219 -108 85 -176 161 -213 236 -31 65 -32 73 -33 193 0
123 7 158 45 220 5 8 13 24 18 36 5 11 44 52 86 90 150 135 241 230 263 274
13 25 27 52 31 60 42 73 66 209 57 321 -3 46 -9 122 -12 169 -5 70 -3 97 14
152 12 37 27 77 34 90 21 38 81 111 116 143 91 81 260 130 370 106 84 -18 256
-14 337 8 154 42 239 100 386 267 110 124 182 180 264 206 67 21 207 22 271 2z"/>
<path d="M4160 6535 c-133 -16 -200 -33 -362 -91 -291 -105 -593 -357 -758
-633 -48 -79 -96 -176 -124 -248 -48 -125 -61 -172 -76 -273 -6 -36 -15 -81
-20 -100 -16 -55 -12 -312 6 -414 15 -88 34 -169 56 -231 5 -16 13 -43 17 -60
12 -44 87 -206 122 -260 10 -16 22 -37 26 -45 12 -27 126 -174 177 -230 28
-30 80 -80 116 -110 36 -30 72 -61 80 -69 13 -13 96 -69 145 -98 40 -24 225
-113 235 -113 5 0 24 -6 42 -14 38 -16 113 -38 213 -63 106 -26 489 -25 600 1
80 19 170 44 235 67 45 16 226 104 265 129 17 11 37 23 45 27 67 30 286 227
348 312 14 20 38 50 52 66 34 38 105 158 149 250 18 39 39 83 47 98 8 16 14
35 14 42 0 8 6 29 14 47 18 41 39 127 60 238 32 170 18 468 -30 620 -8 25 -14
53 -14 62 0 10 -6 32 -14 50 -8 18 -22 53 -32 78 -22 57 -80 176 -105 215 -10
17 -22 37 -26 45 -3 8 -33 51 -66 95 -75 100 -193 221 -274 281 -34 25 -67 52
-74 61 -7 8 -22 19 -34 24 -11 5 -33 18 -50 29 -47 30 -229 120 -244 120 -7 0
-25 6 -39 14 -25 13 -77 29 -182 57 -69 18 -266 39 -355 37 -44 0 -127 -6
-185 -13z m344 -206 c159 -18 284 -54 421 -121 103 -50 113 -56 212 -122 104
-70 311 -288 346 -366 4 -8 16 -28 26 -45 30 -45 75 -142 104 -220 106 -287
104 -627 -7 -930 -30 -82 -123 -251 -168 -303 -15 -18 -28 -36 -28 -41 0 -15
-176 -189 -240 -238 -139 -106 -347 -208 -475 -233 -22 -5 -58 -14 -80 -21
-27 -9 -107 -13 -255 -14 -223 0 -227 1 -395 51 -89 27 -233 91 -300 134 -16
11 -39 24 -50 29 -11 5 -29 17 -40 28 -11 10 -36 30 -57 45 -82 62 -262 264
-291 328 -4 8 -16 29 -26 45 -110 171 -181 436 -181 670 0 72 5 150 11 175 6
25 15 68 19 95 15 86 52 196 101 302 32 69 103 188 124 209 7 8 22 28 34 46
44 70 209 217 341 304 84 55 265 135 350 154 19 4 55 13 80 19 118 29 283 37
424 20z"/>
<path d="M4940 5794 c-30 -7 -68 -21 -85 -30 -16 -9 -209 -195 -428 -413
l-398 -396 -23 29 c-13 15 -33 47 -45 70 -12 22 -31 55 -41 71 -10 17 -29 50
-42 74 -30 59 -111 141 -168 170 -65 34 -204 36 -272 3 -59 -29 -132 -93 -153
-135 -22 -43 -45 -131 -45 -170 1 -59 35 -152 80 -222 11 -16 23 -37 27 -45 4
-8 25 -46 48 -85 22 -38 44 -77 48 -85 4 -8 16 -28 27 -45 11 -16 23 -37 27
-45 4 -8 26 -46 48 -85 23 -38 44 -77 48 -85 4 -8 16 -28 27 -45 10 -16 29
-49 41 -71 58 -111 156 -176 274 -182 135 -8 113 -25 771 632 658 657 626 618
626 771 0 70 -4 100 -20 135 -41 87 -119 152 -218 180 -80 23 -82 23 -154 4z
m119 -213 c54 -28 64 -44 65 -107 l0 -55 -569 -569 c-537 -537 -572 -570 -605
-570 -48 0 -72 19 -112 88 -18 31 -38 66 -45 77 -7 11 -17 29 -23 40 -6 11
-24 43 -41 70 -16 28 -37 64 -45 80 -8 17 -23 44 -34 60 -11 17 -24 39 -30 50
-6 11 -16 29 -23 40 -7 11 -30 52 -52 90 -22 39 -45 79 -52 90 -44 74 -51 110
-29 153 26 49 52 66 107 65 66 -1 90 -23 160 -151 11 -20 29 -50 40 -67 10
-16 22 -37 26 -45 4 -8 26 -48 50 -88 24 -40 43 -76 43 -80 1 -15 37 -50 69
-67 21 -10 43 -14 60 -10 16 4 187 167 471 450 402 401 481 473 523 475 4 0
25 -9 46 -19z"/>
<path d="M6945 7073 c-42 -11 -65 -50 -84 -141 -17 -85 -55 -161 -112 -223
-30 -32 -104 -89 -116 -89 -5 0 -14 -5 -20 -11 -16 -16 -111 -49 -141 -49 -30
0 -83 -27 -104 -54 -25 -30 -23 -89 5 -121 16 -19 46 -32 112 -49 121 -32 186
-69 256 -145 57 -62 119 -171 119 -210 0 -10 8 -42 17 -71 27 -82 92 -112 159
-71 24 15 34 32 47 78 10 33 17 66 17 75 0 15 26 76 55 128 25 44 122 135 175
164 29 16 94 39 144 52 103 28 135 54 135 114 0 57 -62 110 -128 110 -29 0
-58 10 -150 54 -49 23 -155 121 -172 158 -5 13 -21 43 -34 68 -13 25 -24 54
-24 64 -2 47 -34 132 -56 149 -27 19 -70 28 -100 20z m70 -460 c35 -48 124
-131 147 -139 10 -3 18 -10 18 -15 0 -18 -202 -207 -216 -202 -8 3 -14 10 -14
15 0 6 -40 50 -90 98 l-89 88 39 26 c49 32 129 114 141 144 12 32 33 27 64
-15z"/>
<path d="M1473 4803 c-39 -19 -73 -70 -73 -110 0 -33 -32 -129 -49 -146 -6 -6
-11 -15 -11 -20 0 -13 -60 -87 -99 -122 -55 -49 -131 -86 -223 -109 -98 -25
-123 -42 -132 -92 -13 -66 37 -122 121 -135 194 -30 361 -195 392 -389 14 -87
49 -123 118 -122 60 0 79 25 108 136 12 45 34 105 51 135 35 66 128 159 186
187 86 42 119 54 149 54 42 0 103 34 117 65 18 38 15 68 -10 105 -20 29 -34
36 -108 55 -78 20 -113 33 -180 70 -42 23 -126 117 -157 175 -17 30 -38 93
-49 139 -16 70 -24 87 -49 106 -43 32 -66 37 -102 18z m138 -525 c90 -90 100
-103 85 -114 -36 -26 -113 -101 -144 -142 -33 -41 -62 -55 -62 -29 0 14 -77
97 -139 150 l-45 37 70 64 c39 35 81 80 95 100 13 20 27 36 31 36 4 0 53 -46
109 -102z"/>
<path d="M6925 4170 c-31 -21 -63 -91 -64 -143 -1 -25 -13 -55 -42 -107 -5 -8
-13 -25 -19 -37 -27 -64 -211 -203 -268 -203 -40 0 -144 -40 -162 -62 -28 -33
-27 -98 3 -126 28 -26 88 -52 121 -52 23 0 80 -20 116 -41 8 -5 26 -14 38 -19
30 -13 138 -121 152 -152 6 -12 22 -43 35 -68 13 -25 24 -57 24 -71 1 -39 29
-110 53 -136 30 -32 106 -32 135 0 21 23 53 107 53 139 0 10 14 48 31 85 34
74 137 184 200 214 80 38 111 49 137 49 38 1 106 34 126 61 23 34 20 83 -8
116 -18 22 -42 33 -98 46 -164 41 -294 139 -356 270 -18 37 -32 77 -33 90 -2
50 -36 122 -69 145 -41 27 -66 28 -105 2z m108 -470 c20 -27 57 -64 81 -82 24
-18 49 -42 56 -52 11 -17 9 -22 -16 -40 -49 -34 -135 -120 -144 -143 -14 -35
-43 -28 -77 20 -28 38 -84 92 -137 130 -15 11 -17 17 -7 35 6 12 15 22 20 22
10 0 118 105 137 136 24 36 46 30 87 -26z"/>
<path d="M1980 2909 c-118 -33 -232 -82 -305 -129 -16 -11 -37 -23 -45 -27
-18 -8 -73 -45 -80 -54 -3 -3 -23 -18 -45 -32 -22 -14 -53 -37 -70 -52 -16
-14 -59 -51 -95 -83 -89 -78 -259 -248 -361 -361 -46 -52 -90 -100 -98 -108
-10 -10 -25 -12 -55 -7 -22 4 -74 7 -113 6 -110 -1 -144 -24 -382 -257 -245
-240 -281 -283 -281 -333 0 -35 30 -66 682 -719 375 -375 694 -687 710 -694
22 -9 35 -9 59 1 30 13 441 416 495 487 49 63 58 92 64 203 l5 104 30 7 c17 4
44 12 60 17 183 64 517 89 825 62 63 -6 189 -15 280 -20 91 -5 203 -14 250
-20 47 -5 202 -10 345 -10 263 0 398 12 521 46 28 8 59 14 70 14 24 0 105 26
237 76 113 44 322 143 442 209 33 19 83 45 110 60 28 14 66 35 85 47 19 11 55
31 80 45 25 13 59 33 75 43 17 10 41 25 55 32 28 16 257 154 298 180 15 10 34
21 42 25 8 4 43 26 78 50 35 24 65 43 67 43 2 0 34 21 72 47 37 26 88 60 113
77 231 155 360 286 403 411 81 236 -124 452 -385 405 -40 -7 -84 -19 -98 -26
-14 -7 -45 -22 -70 -34 -25 -12 -85 -43 -135 -70 -90 -49 -423 -216 -542 -271
-119 -55 -198 -91 -228 -104 -16 -8 -59 -27 -95 -43 -36 -16 -117 -51 -180
-76 -63 -26 -128 -54 -143 -62 -16 -8 -39 -14 -51 -14 -22 0 -24 5 -30 80 -14
176 -138 315 -311 348 -33 7 -154 16 -270 22 -115 5 -226 14 -245 20 -19 5
-50 10 -68 10 -19 0 -64 7 -100 16 -153 37 -188 46 -217 56 -16 5 -46 14 -65
18 -19 4 -60 18 -90 30 -30 12 -69 25 -85 29 -17 4 -39 13 -50 18 -11 6 -40
19 -65 28 -25 9 -58 23 -75 30 -16 7 -50 20 -75 30 -25 9 -58 23 -75 30 -16 7
-50 20 -75 30 -25 9 -58 23 -73 31 -16 8 -35 14 -42 14 -8 0 -29 6 -47 14 -34
15 -101 34 -204 61 -89 22 -347 19 -434 -6z m418 -205 c37 -9 82 -23 100 -30
18 -8 40 -14 48 -14 9 0 28 -6 42 -14 15 -8 47 -21 72 -31 25 -9 59 -23 75
-30 17 -7 50 -20 75 -30 25 -9 59 -23 75 -30 17 -7 50 -20 75 -30 25 -9 59
-23 75 -30 57 -24 164 -62 210 -75 29 -8 55 -16 128 -41 17 -6 50 -14 72 -19
22 -4 58 -12 80 -18 145 -39 374 -70 580 -77 195 -7 232 -15 280 -62 63 -61
70 -174 14 -237 -88 -100 -351 -150 -671 -126 -141 10 -198 18 -363 50 -113
22 -199 46 -285 81 -90 35 -112 35 -151 1 -31 -27 -34 -36 -33 -82 1 -68 12
-78 149 -132 28 -11 66 -24 85 -28 61 -15 123 -31 176 -46 28 -8 61 -14 74
-14 13 0 57 -6 99 -14 153 -29 388 -40 548 -27 82 7 168 19 193 26 25 7 56 15
70 18 14 3 41 11 60 17 83 30 108 38 160 54 30 10 72 24 93 32 43 16 101 38
155 58 42 16 181 72 230 92 65 28 103 44 135 58 17 8 52 24 77 34 76 34 162
73 230 104 120 56 564 278 625 313 184 104 256 117 325 59 37 -31 40 -75 10
-135 -27 -53 -76 -100 -196 -191 -92 -69 -351 -245 -384 -261 -8 -4 -27 -15
-41 -25 -15 -9 -123 -75 -240 -145 -118 -70 -221 -132 -229 -137 -8 -5 -35
-20 -60 -33 -25 -14 -74 -41 -110 -61 -36 -20 -101 -54 -145 -77 -44 -22 -87
-44 -95 -49 -8 -5 -22 -11 -30 -14 -8 -3 -22 -10 -30 -15 -36 -22 -167 -78
-267 -115 -89 -31 -110 -38 -143 -46 -19 -4 -55 -13 -80 -19 -134 -32 -234
-41 -481 -41 -140 0 -292 5 -339 10 -47 6 -159 15 -250 20 -91 5 -217 14 -280
20 -171 15 -445 12 -573 -5 -134 -18 -263 -43 -297 -57 -14 -6 -38 -14 -55
-18 -16 -5 -56 -18 -89 -30 l-59 -22 -438 438 c-242 242 -439 445 -439 452 0
32 343 392 474 497 27 22 56 47 65 55 15 15 114 84 149 105 9 6 35 22 57 35
36 23 55 32 135 69 14 6 52 20 85 30 81 26 297 28 393 5z m-1080 -1387 l532
-532 0 -48 0 -49 -182 -184 c-100 -101 -189 -184 -197 -184 -9 0 -274 258
-590 574 -500 500 -572 576 -563 592 23 42 349 355 377 362 72 20 58 32 623
-531z"/>
</g>
</svg>
