 <svg  version="1.0" xmlns="http://www.w3.org/2000/svg"  width="768.000000pt" height="768.000000pt" viewBox="0 0 768.000000 768.000000"  preserveAspectRatio="xMidYMid meet">  <g transform="translate(0.000000,768.000000) scale(0.100000,-0.100000)" fill="#ffffff" stroke="none"> <path d="M2354 7521 c-37 -16 -40 -67 -9 -171 30 -102 45 -157 51 -197 6 -40 5 -43 -22 -53 -27 -10 -246 -119 -289 -143 -314 -180 -545 -356 -790 -603 -127 -128 -159 -162 -240 -262 -104 -128 -253 -341 -281 -402 -4 -8 -13 -22 -19 -30 -39 -47 -184 -338 -240 -480 -9 -25 -23 -57 -31 -72 -8 -14 -14 -34 -14 -43 0 -9 -6 -29 -14 -43 -8 -15 -22 -54 -31 -87 -10 -33 -24 -75 -31 -93 -8 -18 -14 -40 -14 -50 0 -9 -6 -37 -14 -62 -8 -25 -22 -81 -31 -125 -9 -44 -23 -108 -31 -142 -8 -34 -14 -75 -14 -92 0 -17 -6 -70 -14 -118 -20 -121 -28 -444 -17 -651 5 -96 12 -176 15 -180 4 -3 28 15 54 40 26 26 68 58 94 72 41 23 59 26 138 26 91 0 123 -9 172 -48 38 -31 40 -17 39 278 -2 291 10 453 45 592 8 32 14 67 14 79 0 12 7 47 16 78 8 31 22 81 30 111 9 30 20 69 26 85 5 17 13 44 18 60 5 17 18 55 30 85 12 30 25 66 29 80 14 43 136 298 174 365 90 155 144 238 221 340 33 44 62 82 66 85 3 3 25 30 50 60 156 193 436 440 670 592 157 101 353 203 375 194 8 -3 19 -24 25 -48 6 -24 18 -65 26 -93 7 -27 16 -61 19 -75 2 -14 14 -40 25 -57 17 -28 25 -33 59 -33 47 0 45 -2 270 298 84 112 159 211 166 220 8 10 27 34 42 54 15 20 56 73 91 117 52 67 62 87 62 119 0 48 -15 62 -100 97 -66 28 -93 39 -165 70 -22 10 -53 23 -70 30 -16 6 -46 19 -65 27 -19 9 -87 37 -150 63 -63 26 -130 53 -147 61 -18 8 -50 21 -70 30 -21 9 -51 22 -67 30 -37 19 -105 26 -132 15z"/> <path d="M3562 7400 c-73 -4 -135 -10 -139 -13 -3 -4 17 -31 45 -62 72 -79 92 -128 92 -229 0 -80 -14 -128 -50 -171 -30 -36 -11 -38 275 -36 310 3 512 -17 720 -70 22 -6 51 -12 65 -15 30 -6 123 -32 165 -46 17 -5 44 -13 60 -18 17 -5 55 -18 85 -30 30 -12 66 -25 80 -29 50 -16 318 -145 375 -182 17 -10 39 -24 50 -29 67 -36 228 -143 296 -196 184 -145 369 -319 464 -435 28 -34 69 -85 93 -113 52 -61 175 -239 202 -291 6 -11 19 -33 30 -50 58 -91 133 -244 126 -260 -3 -8 -24 -19 -48 -25 -24 -6 -65 -18 -93 -26 -27 -7 -61 -16 -75 -19 -14 -2 -40 -14 -57 -25 -28 -17 -33 -25 -33 -59 0 -47 -2 -45 298 -270 112 -84 211 -159 220 -166 10 -8 34 -27 54 -42 20 -15 73 -56 117 -90 67 -53 87 -63 119 -63 48 0 62 15 97 100 15 36 33 79 40 95 30 71 46 107 58 138 8 17 21 48 29 67 9 19 37 87 63 150 26 63 53 130 61 148 8 17 20 47 27 65 8 17 22 50 33 71 22 45 25 129 7 147 -17 17 -101 15 -160 -4 -122 -38 -151 -46 -195 -52 l-47 -7 -18 43 c-38 98 -167 333 -263 484 -48 75 -152 217 -222 303 -174 213 -435 465 -622 600 -17 12 -38 28 -47 35 -8 6 -23 17 -31 22 -9 6 -49 33 -89 60 -79 53 -105 70 -129 81 -8 4 -22 13 -30 19 -46 38 -338 184 -480 240 -25 9 -58 23 -75 30 -52 22 -108 42 -170 60 -33 10 -75 24 -93 31 -18 8 -41 14 -51 14 -9 0 -37 6 -62 14 -43 13 -125 32 -271 61 -242 47 -553 63 -896 45z"/> <path d="M3800 5965 c0 -9 12 -32 26 -50 30 -40 64 -104 64 -122 0 -7 6 -27 14 -45 8 -18 22 -62 31 -98 71 -270 101 -356 161 -461 18 -32 66 -79 107 -105 46 -30 153 -41 246 -25 56 9 67 8 83 -6 10 -9 18 -21 18 -27 0 -6 13 -38 29 -71 39 -83 52 -115 61 -150 5 -16 13 -43 19 -60 11 -35 33 -118 57 -223 19 -85 16 -194 -7 -217 -11 -11 -41 -16 -113 -18 -89 -2 -99 -4 -117 -26 -18 -23 -19 -55 -19 -1091 l0 -1067 21 -27 21 -27 333 3 c183 2 337 7 342 11 4 5 9 498 11 1096 2 930 0 1090 -12 1106 -12 17 -28 20 -103 22 -48 1 -91 2 -95 2 -14 1 -8 80 8 118 68 155 137 263 168 263 12 0 26 -4 32 -10 13 -13 150 -49 186 -50 38 0 114 27 159 57 67 44 150 172 204 313 18 47 31 79 59 143 9 21 16 42 16 47 0 11 55 135 71 160 5 8 13 24 18 35 5 11 27 39 50 61 22 23 38 44 34 48 -13 12 -240 6 -323 -10 -282 -53 -453 -132 -575 -267 -85 -93 -110 -152 -112 -264 -1 -101 -19 -142 -60 -143 -16 0 -23 8 -28 33 -10 54 -54 164 -117 293 l-49 102 15 60 c20 74 20 96 2 165 -28 109 -95 199 -216 292 -146 111 -399 205 -620 230 -30 3 -65 9 -77 12 -17 4 -23 1 -23 -12z"/> <path d="M2739 5220 c-41 -25 -32 -69 39 -190 38 -63 54 -99 49 -107 -3 -5 -25 -19 -49 -31 -24 -13 -56 -32 -73 -42 -16 -11 -37 -23 -45 -27 -8 -4 -46 -25 -85 -48 -38 -22 -77 -44 -85 -48 -8 -4 -28 -16 -45 -27 -16 -11 -37 -23 -45 -27 -8 -4 -46 -26 -85 -48 -38 -23 -77 -44 -85 -48 -8 -4 -28 -16 -45 -27 -16 -11 -37 -23 -45 -27 -8 -4 -58 -32 -110 -63 -52 -31 -102 -59 -110 -63 -8 -4 -28 -16 -45 -26 -16 -11 -52 -32 -80 -47 -89 -49 -100 -55 -130 -74 -16 -11 -37 -23 -45 -27 -33 -15 -116 -68 -137 -86 -33 -29 -31 -87 5 -146 16 -25 31 -53 35 -61 4 -8 16 -28 27 -45 10 -16 29 -50 42 -73 21 -42 79 -102 97 -102 12 0 90 37 126 60 31 19 42 26 130 74 28 15 64 36 80 47 17 10 37 22 45 26 8 4 58 32 110 63 52 31 102 59 110 63 8 4 29 16 45 27 17 11 37 23 45 27 8 4 47 26 85 48 39 23 77 44 85 48 8 4 29 16 45 27 17 11 37 23 45 27 8 4 47 26 85 48 39 23 77 44 85 48 8 4 29 16 45 27 17 11 37 23 45 27 8 4 48 26 89 50 41 24 81 43 89 41 14 -3 35 -31 62 -83 37 -71 71 -120 94 -134 24 -14 28 -14 52 0 15 9 35 37 46 65 11 27 26 64 34 82 36 84 44 102 74 177 36 90 51 125 72 175 9 19 23 55 33 80 22 57 44 107 61 143 16 32 18 85 5 106 -10 16 -157 50 -215 51 -22 0 -78 7 -125 15 -117 19 -302 44 -456 60 -35 3 -67 1 -76 -5z"/> <path d="M7322 4190 c-75 -70 -125 -90 -229 -90 -84 0 -117 10 -165 48 -39 32 -41 18 -39 -278 1 -175 -2 -314 -10 -360 -6 -41 -15 -104 -19 -140 -15 -123 -49 -270 -107 -465 -27 -87 -76 -216 -115 -305 -32 -71 -120 -246 -139 -275 -10 -16 -23 -39 -29 -50 -6 -11 -19 -33 -30 -50 -11 -16 -23 -37 -27 -45 -3 -8 -19 -31 -35 -51 -15 -20 -28 -40 -28 -44 0 -7 -114 -158 -139 -185 -9 -9 -38 -44 -66 -78 -124 -154 -403 -402 -598 -533 -32 -21 -61 -39 -63 -39 -3 0 -20 -11 -37 -24 -74 -54 -302 -170 -321 -163 -8 3 -20 25 -26 49 -6 24 -18 66 -26 93 -7 28 -16 61 -19 75 -2 14 -14 40 -25 57 -17 28 -25 33 -59 33 -47 0 -45 2 -270 -298 -84 -112 -159 -211 -166 -220 -8 -10 -27 -34 -42 -54 -15 -20 -56 -73 -90 -117 -53 -67 -63 -87 -63 -119 0 -48 15 -62 100 -97 66 -28 93 -39 165 -70 22 -10 56 -24 75 -32 19 -8 49 -21 65 -28 17 -7 82 -34 145 -60 63 -26 129 -53 145 -60 17 -7 46 -19 65 -27 19 -8 53 -23 74 -34 45 -22 129 -25 147 -7 17 17 15 101 -4 160 -38 122 -46 151 -52 195 l-7 47 43 18 c73 29 328 162 359 188 8 6 22 15 30 19 8 3 29 15 45 26 17 11 39 24 50 30 11 5 45 28 75 50 30 22 75 55 100 72 181 128 479 412 648 620 91 112 254 345 278 398 4 8 13 22 19 30 36 44 192 356 240 480 9 25 22 54 28 65 5 11 14 33 18 50 4 16 18 62 32 100 76 220 124 431 163 715 26 191 23 831 -4 830 -4 -1 -31 -23 -60 -50z"/> <path d="M3223 3718 l-23 -11 0 -818 c0 -799 0 -819 19 -829 13 -6 138 -10 338 -10 272 0 322 2 341 16 l22 15 0 808 0 809 -25 16 c-21 14 -65 16 -337 15 -203 0 -321 -4 -335 -11z"/> <path d="M508 3306 c-8 -7 -26 -44 -42 -82 -15 -38 -34 -84 -42 -101 -8 -18 -21 -49 -29 -68 -8 -19 -22 -51 -30 -70 -8 -19 -21 -50 -29 -68 -7 -17 -35 -84 -61 -147 -80 -194 -98 -237 -122 -287 -21 -42 -24 -126 -6 -144 17 -17 101 -15 160 4 122 38 151 46 195 52 46 7 48 6 58 -21 12 -30 122 -255 143 -289 7 -11 24 -39 40 -63 15 -24 27 -45 27 -48 0 -2 12 -23 27 -47 15 -23 32 -50 38 -59 34 -56 146 -209 217 -296 185 -226 464 -491 673 -636 138 -97 190 -132 205 -139 24 -12 57 -32 71 -44 45 -35 358 -191 479 -238 25 -9 54 -22 65 -28 11 -5 33 -14 50 -18 16 -4 64 -19 105 -34 305 -106 651 -169 1000 -180 166 -6 525 7 537 19 3 3 -17 30 -45 60 -75 83 -92 125 -92 230 0 87 9 119 48 168 32 39 18 41 -278 39 -175 -1 -314 2 -360 10 -41 6 -104 15 -140 19 -116 14 -333 63 -445 102 -16 5 -43 13 -60 18 -16 5 -55 18 -85 30 -30 12 -67 25 -81 29 -45 15 -322 149 -374 182 -16 10 -39 23 -50 29 -48 25 -113 65 -146 91 -20 16 -40 29 -44 29 -7 0 -164 118 -180 135 -5 6 -32 29 -60 50 -71 56 -271 254 -330 327 -27 34 -57 69 -66 78 -63 66 -204 273 -295 435 -49 85 -95 188 -91 199 6 14 23 20 152 52 33 9 80 25 105 37 40 20 45 26 48 60 2 22 -3 45 -10 54 -7 9 -121 97 -253 196 -132 99 -242 183 -245 187 -3 3 -23 19 -45 35 -22 17 -42 32 -45 35 -3 3 -42 34 -87 68 -69 52 -89 62 -122 62 -22 0 -46 -6 -53 -14z"/> <path d="M1940 3040 c-19 -19 -20 -33 -20 -485 0 -452 1 -466 20 -485 19 -19 33 -20 345 -20 321 0 324 0 345 22 20 21 20 33 20 485 0 450 -1 464 -20 483 -19 19 -33 20 -345 20 -312 0 -326 -1 -345 -20z"/> </g> </svg> 