 <svg  version="1.0" xmlns="http://www.w3.org/2000/svg"  width="1350.000000pt" height="1362.000000pt" viewBox="0 0 1350.000000 1362.000000"  preserveAspectRatio="xMidYMid meet">  <g transform="translate(0.000000,1362.000000) scale(0.100000,-0.100000)" fill="#ffffff" stroke="none"> <path d="M6525 10529 c-33 -4 -107 -13 -165 -18 -58 -6 -123 -13 -145 -16 -84 -12 -221 -37 -250 -45 -16 -5 -48 -12 -70 -15 -22 -4 -60 -13 -85 -20 -63 -19 -145 -42 -215 -61 -33 -9 -72 -23 -87 -30 -14 -8 -35 -14 -45 -14 -11 0 -28 -7 -39 -15 -10 -8 -27 -15 -36 -15 -17 0 -67 -19 -121 -46 -16 -8 -32 -14 -37 -14 -9 0 -185 -80 -230 -104 -14 -8 -63 -34 -110 -59 -145 -76 -408 -241 -510 -319 -414 -317 -705 -620 -968 -1006 -87 -128 -107 -159 -122 -187 -6 -11 -20 -36 -32 -55 -57 -94 -161 -298 -220 -430 -11 -25 -26 -58 -34 -73 -8 -16 -14 -36 -14 -45 0 -9 -7 -26 -15 -36 -8 -11 -15 -27 -15 -35 0 -9 -7 -29 -15 -45 -8 -15 -15 -36 -15 -45 0 -10 -7 -26 -15 -37 -8 -10 -15 -31 -15 -46 0 -15 -4 -29 -9 -32 -5 -3 -12 -22 -16 -42 -3 -20 -11 -48 -17 -63 -22 -52 -73 -275 -109 -476 -71 -399 -71 -979 1 -1375 11 -63 25 -142 30 -175 6 -33 15 -73 20 -90 5 -16 16 -57 25 -90 52 -198 141 -456 210 -610 39 -86 149 -308 180 -360 19 -33 39 -69 45 -80 6 -11 18 -32 28 -47 9 -14 30 -48 46 -75 233 -384 626 -807 1041 -1118 43 -32 286 -195 291 -195 2 0 20 -12 41 -26 21 -14 47 -30 58 -35 11 -5 49 -26 85 -45 211 -116 452 -223 640 -283 52 -17 109 -36 125 -42 31 -11 113 -34 175 -48 78 -19 137 -33 165 -41 17 -5 53 -11 80 -15 28 -3 75 -12 105 -20 97 -24 523 -63 558 -50 10 3 12 135 10 632 l-3 628 -120 12 c-179 18 -372 48 -410 64 -19 7 -97 28 -190 51 -22 5 -44 13 -50 19 -5 5 -17 9 -27 9 -17 0 -65 18 -121 46 -16 8 -33 14 -38 14 -10 0 -195 84 -219 100 -8 5 -47 25 -87 45 -39 20 -77 43 -83 51 -7 8 -16 14 -21 14 -10 0 -218 141 -269 182 -89 73 -214 183 -272 241 -122 123 -279 313 -333 405 -5 9 -22 33 -37 53 -16 20 -28 39 -28 42 0 3 -12 25 -27 49 -43 66 -48 76 -107 193 -72 146 -106 224 -106 245 0 10 -7 23 -15 30 -8 7 -15 21 -15 31 0 10 -6 33 -14 51 -18 43 -37 104 -47 148 -4 19 -17 71 -29 115 -85 321 -99 751 -36 1155 14 91 21 123 51 235 35 134 78 264 119 360 36 82 47 106 83 180 71 143 96 189 120 222 12 17 23 34 23 37 0 3 14 25 30 48 17 24 38 54 47 68 28 41 135 183 159 210 127 145 203 220 330 332 65 56 189 153 222 172 10 6 43 27 73 47 97 64 143 93 189 116 25 13 52 27 60 32 26 16 203 97 250 116 25 9 60 23 78 31 18 8 37 14 43 14 6 0 25 6 42 13 18 8 59 22 92 31 33 10 75 22 92 27 18 6 54 14 80 19 27 5 98 18 158 30 61 12 164 25 229 30 79 6 122 13 127 22 5 7 8 292 6 633 l-2 620 -60 1 c-33 1 -87 -2 -120 -7z m-1 -204 c11 -30 2 -863 -10 -875 -11 -11 -49 -18 -174 -36 -62 -8 -194 -35 -244 -50 -26 -8 -55 -14 -62 -14 -17 0 -195 -57 -241 -76 -17 -8 -37 -14 -45 -14 -7 0 -22 -7 -32 -15 -11 -8 -26 -15 -33 -15 -13 0 -96 -37 -218 -97 -82 -40 -69 -33 -213 -120 -62 -37 -120 -72 -130 -78 -9 -5 -52 -37 -95 -70 -44 -33 -94 -71 -112 -85 -104 -80 -271 -239 -386 -370 -69 -78 -219 -274 -219 -286 0 -3 -12 -23 -27 -43 -31 -40 -48 -66 -63 -96 -6 -11 -26 -47 -45 -80 -49 -83 -165 -321 -165 -337 0 -8 -6 -22 -14 -33 -7 -11 -16 -31 -19 -45 -3 -14 -15 -50 -27 -80 -59 -150 -131 -463 -150 -650 -19 -181 -21 -451 -6 -630 16 -187 41 -354 56 -382 6 -10 10 -28 10 -41 0 -37 95 -353 111 -372 5 -5 9 -18 9 -30 0 -12 7 -30 15 -41 8 -10 15 -25 15 -32 0 -19 153 -329 184 -375 14 -21 26 -40 26 -43 0 -21 206 -305 299 -414 79 -92 244 -255 326 -323 39 -32 79 -66 90 -75 11 -10 36 -29 55 -42 19 -13 41 -31 49 -38 19 -19 178 -122 187 -122 4 0 15 -6 23 -14 33 -28 260 -146 376 -195 44 -18 89 -37 100 -42 30 -13 106 -39 145 -50 19 -6 44 -14 55 -18 11 -5 49 -16 85 -26 36 -9 79 -20 95 -26 17 -5 53 -12 80 -15 28 -3 68 -12 90 -19 22 -7 78 -16 125 -20 138 -11 125 38 124 -469 0 -278 -4 -440 -11 -447 -6 -6 -39 -6 -99 2 -49 6 -118 15 -154 19 -99 12 -232 36 -260 47 -14 6 -47 14 -74 17 -27 4 -56 11 -65 16 -9 4 -38 13 -66 19 -64 15 -181 49 -220 65 -48 20 -98 38 -125 43 -14 3 -34 12 -45 19 -11 8 -26 14 -35 14 -8 0 -44 14 -80 31 -36 17 -78 37 -95 44 -37 16 -234 113 -255 125 -8 5 -66 40 -128 77 -153 91 -150 90 -252 160 -39 27 -182 135 -202 152 -9 9 -47 41 -84 71 -106 87 -319 296 -413 405 -119 138 -311 388 -334 434 -4 9 -36 61 -71 116 -80 124 -286 532 -286 566 0 6 -5 20 -12 32 -15 27 -36 81 -48 122 -10 36 -28 88 -45 130 -19 44 -56 181 -89 325 -8 36 -20 85 -26 110 -52 215 -87 683 -70 955 22 352 46 518 114 795 9 36 20 81 25 100 4 19 13 46 18 60 16 38 34 92 43 125 17 63 99 277 111 290 5 5 9 15 9 23 0 15 134 291 188 387 16 28 59 97 98 155 38 58 71 110 73 115 2 6 45 63 95 129 50 65 100 131 111 146 77 106 317 354 480 496 142 122 489 374 560 405 11 5 27 13 35 19 33 21 168 96 210 117 93 45 197 91 250 113 30 12 69 27 85 34 53 23 109 44 165 62 30 9 71 22 90 29 146 52 342 98 530 126 41 6 100 17 130 24 80 19 216 19 224 0z"/> <path d="M6968 10534 c-5 -4 -8 -285 -8 -624 0 -523 2 -619 14 -629 8 -7 63 -16 123 -21 112 -8 286 -34 338 -50 17 -5 68 -18 115 -29 121 -29 231 -63 295 -90 11 -5 40 -16 65 -26 52 -21 306 -144 365 -177 116 -67 331 -219 437 -311 46 -40 60 -47 75 -38 10 5 210 202 446 438 372 374 453 463 420 463 -5 0 -38 29 -76 64 -37 34 -110 96 -163 137 -52 41 -119 93 -148 117 -29 23 -56 42 -59 42 -3 0 -41 24 -84 53 -43 30 -130 84 -193 121 -63 36 -122 71 -130 75 -20 12 -199 100 -282 139 -37 18 -73 32 -79 32 -6 0 -23 6 -37 14 -35 18 -85 37 -197 76 -49 16 -103 35 -120 41 -39 14 -87 28 -155 44 -30 7 -68 18 -85 23 -16 6 -66 18 -110 27 -44 9 -111 22 -150 31 -38 8 -84 14 -101 14 -17 0 -44 4 -60 10 -16 5 -96 14 -179 21 -82 6 -177 13 -210 16 -33 3 -63 1 -67 -3z m372 -204 c19 -6 76 -15 125 -21 50 -6 104 -14 120 -19 17 -5 55 -13 85 -20 114 -23 246 -55 285 -69 17 -6 77 -27 135 -46 133 -44 186 -63 208 -74 9 -5 37 -17 62 -27 96 -37 318 -144 400 -192 19 -11 58 -33 85 -47 28 -15 64 -38 82 -51 17 -13 34 -24 37 -24 6 0 148 -99 235 -163 132 -98 191 -149 191 -165 0 -19 -608 -632 -627 -632 -6 0 -35 19 -65 43 -96 78 -305 212 -418 268 -25 13 -67 35 -93 51 -26 15 -52 28 -57 28 -6 0 -38 13 -72 28 -105 48 -233 96 -343 128 -142 42 -166 47 -305 73 -36 7 -84 16 -108 22 -23 5 -58 9 -78 9 -19 0 -44 5 -55 10 -18 10 -19 26 -19 449 0 241 3 441 7 444 10 11 144 8 183 -3z"/> <path d="M9401 8785 l-444 -444 69 -83 c105 -125 239 -309 267 -368 4 -8 23 -42 42 -75 19 -33 60 -112 91 -175 58 -120 61 -126 89 -200 9 -25 21 -56 26 -68 16 -41 45 -135 63 -202 10 -36 21 -79 27 -95 5 -17 12 -53 15 -80 3 -28 12 -66 19 -85 7 -19 15 -75 19 -125 4 -49 13 -126 19 -170 l13 -80 624 -3 c364 -1 626 2 629 7 9 13 -4 266 -17 341 -6 36 -16 101 -22 145 -24 170 -51 311 -69 358 -6 16 -11 37 -11 49 0 11 -6 34 -14 51 -13 31 -32 98 -42 147 -3 14 -9 34 -14 45 -5 11 -20 54 -34 95 -50 149 -154 396 -205 490 -4 8 -27 51 -51 95 -43 80 -74 133 -98 170 -6 11 -15 27 -19 35 -3 8 -19 31 -35 51 -15 20 -28 39 -28 42 0 6 -100 154 -132 197 -157 206 -307 381 -325 380 -5 -1 -208 -201 -452 -445z m491 133 c18 -24 38 -47 44 -53 17 -15 134 -173 134 -181 0 -3 12 -20 26 -38 27 -33 124 -181 124 -190 0 -3 12 -24 28 -48 15 -24 33 -52 39 -63 15 -24 169 -338 187 -380 7 -16 18 -41 24 -55 12 -27 45 -112 67 -170 7 -19 23 -69 36 -110 12 -41 26 -82 30 -90 13 -26 59 -217 89 -370 6 -30 17 -86 25 -125 12 -58 29 -198 38 -305 l2 -25 -446 -3 c-377 -2 -448 0 -458 12 -7 8 -16 59 -22 113 -5 54 -12 105 -16 113 -3 8 -9 35 -13 60 -13 74 -58 256 -81 320 -6 19 -18 53 -27 75 -8 22 -21 58 -29 80 -8 22 -21 53 -29 68 -8 16 -14 33 -14 38 0 12 -119 253 -162 329 -53 93 -138 221 -205 308 -34 45 -63 90 -63 99 0 19 608 632 627 633 6 0 26 -19 45 -42z"/> <path d="M6571 8306 c-32 -34 -40 -82 -41 -238 0 -83 -4 -139 -10 -143 -6 -4 -41 -11 -78 -16 -37 -5 -80 -14 -97 -19 -16 -6 -59 -20 -95 -31 -314 -101 -560 -346 -626 -624 -35 -148 -25 -394 21 -500 69 -160 151 -268 266 -345 72 -50 209 -122 274 -145 28 -9 64 -23 80 -30 49 -21 212 -65 330 -90 44 -9 98 -21 120 -26 22 -6 69 -17 105 -25 36 -8 81 -19 100 -24 19 -5 61 -15 92 -24 99 -25 222 -90 263 -140 86 -105 44 -253 -90 -322 -75 -39 -242 -74 -349 -74 -88 0 -250 38 -326 76 -39 20 -155 133 -164 161 -4 10 -27 33 -51 51 l-44 32 -334 0 -334 0 -28 -26 c-28 -26 -28 -26 -22 -123 4 -57 13 -114 23 -137 80 -186 143 -278 254 -370 39 -32 76 -61 83 -63 7 -2 19 -9 27 -16 31 -27 175 -97 239 -117 36 -11 77 -25 91 -30 30 -13 144 -37 220 -46 l55 -7 5 -173 5 -174 37 -34 38 -34 221 0 222 0 32 34 c41 44 48 80 40 214 -3 59 -2 121 3 137 7 27 14 31 58 37 118 16 256 54 369 103 70 30 167 81 177 92 6 7 15 13 20 13 12 0 76 51 150 120 63 58 130 153 168 235 12 28 26 57 31 66 4 9 11 34 15 55 3 22 13 64 20 94 19 74 18 246 -1 300 -8 23 -15 56 -15 72 0 32 -12 64 -61 164 -34 70 -113 161 -191 221 -76 59 -253 146 -343 169 -11 3 -29 10 -40 15 -11 5 -38 13 -60 18 -22 6 -67 17 -100 26 -154 40 -216 54 -287 65 -69 10 -188 39 -210 51 -10 5 -26 9 -35 9 -22 0 -108 27 -146 46 -16 8 -34 14 -41 14 -24 0 -124 80 -145 115 -27 46 -31 184 -6 205 8 7 15 18 15 25 0 18 66 67 115 87 119 46 237 59 321 33 27 -8 57 -15 67 -15 36 0 130 -51 169 -92 21 -22 50 -63 64 -89 17 -35 36 -55 64 -69 37 -19 58 -20 377 -20 376 0 374 0 392 66 18 66 -25 219 -92 329 -119 195 -368 384 -600 454 -136 42 -170 51 -188 51 -10 0 -21 6 -26 13 -4 6 -10 89 -13 184 -5 164 -6 173 -29 197 l-24 26 -237 0 -237 0 -22 -24z"/> <path d="M10107 6263 c-14 -13 -6 -20 51 -42 31 -12 71 -28 87 -36 17 -8 66 -28 110 -45 44 -18 94 -38 110 -45 17 -7 82 -34 145 -60 63 -26 129 -52 145 -60 194 -84 184 -83 203 -10 13 47 19 276 8 293 -5 9 -118 12 -430 12 -232 0 -426 -3 -429 -7z"/> <path d="M9705 6188 c-3 -7 -11 -74 -19 -148 -9 -74 -20 -155 -26 -180 -31 -125 -31 -132 -14 -151 10 -11 23 -19 30 -19 7 0 25 -6 41 -14 36 -17 86 -39 143 -61 50 -19 78 -31 210 -88 19 -8 55 -23 80 -32 25 -9 59 -23 75 -30 17 -7 66 -27 110 -45 44 -18 94 -38 110 -45 17 -8 71 -30 120 -50 50 -21 94 -41 100 -46 5 -5 18 -9 30 -9 12 0 30 -7 41 -15 10 -8 33 -15 50 -15 27 0 33 4 37 28 3 15 15 61 27 102 12 41 26 100 30 131 5 31 14 68 20 83 5 15 10 51 10 79 l0 52 -118 48 c-64 27 -139 58 -167 69 -27 11 -54 24 -60 29 -5 5 -18 9 -30 9 -12 0 -25 4 -31 9 -8 8 -48 25 -159 69 -22 8 -68 28 -103 44 -34 15 -68 28 -75 28 -7 0 -22 7 -33 15 -10 8 -27 15 -36 15 -9 0 -29 6 -45 14 -15 7 -44 20 -63 28 -19 9 -51 22 -70 31 -19 8 -55 23 -80 32 -25 9 -58 23 -73 31 -35 17 -56 18 -62 2z m228 -269 c29 -12 66 -27 82 -34 17 -7 66 -28 110 -45 44 -18 89 -36 100 -40 11 -5 40 -17 65 -28 59 -26 294 -121 345 -139 62 -22 74 -37 68 -86 -3 -23 -11 -48 -19 -56 -13 -14 -32 -8 -199 64 -16 7 -66 28 -110 45 -93 38 -127 52 -175 73 -19 8 -71 29 -115 47 -98 38 -126 50 -190 81 -49 23 -50 25 -47 63 3 38 17 76 28 76 3 0 29 -9 57 -21z"/> <path d="M9562 5488 c-18 -65 -67 -185 -127 -310 -29 -63 -34 -81 -25 -98 6 -11 19 -20 28 -20 10 0 22 -4 28 -9 5 -5 34 -19 64 -31 30 -12 69 -28 85 -35 17 -7 66 -28 110 -45 44 -18 94 -38 110 -45 17 -7 47 -20 68 -29 21 -9 42 -16 47 -16 9 0 126 -51 173 -75 16 -8 37 -15 47 -15 10 0 21 -4 25 -9 3 -5 22 -15 43 -22 20 -6 60 -22 87 -34 28 -13 70 -30 95 -40 25 -9 58 -23 73 -31 16 -8 41 -14 55 -14 30 0 31 2 88 140 20 47 40 93 45 102 16 31 69 184 69 201 0 4 -7 7 -16 7 -9 0 -28 6 -42 14 -15 8 -63 29 -107 46 -44 18 -93 38 -110 45 -16 7 -66 28 -110 45 -44 18 -87 35 -95 39 -8 5 -58 25 -110 45 -52 21 -115 47 -140 58 -25 11 -54 23 -65 28 -11 4 -56 22 -100 40 -44 17 -93 38 -110 45 -60 28 -136 55 -155 55 -13 0 -22 -10 -28 -32z m188 -222 c63 -24 241 -96 258 -105 9 -5 37 -17 62 -27 25 -10 69 -28 98 -41 29 -13 56 -23 59 -23 4 0 25 -8 47 -19 23 -10 77 -33 121 -51 44 -17 87 -35 95 -39 21 -11 23 -41 5 -84 -14 -33 -18 -37 -43 -31 -28 6 -145 52 -272 106 -19 9 -55 23 -80 33 -54 21 -93 37 -140 58 -19 8 -60 25 -90 36 -30 12 -66 27 -80 33 -41 18 -83 35 -112 47 -33 12 -35 35 -11 86 18 38 30 41 83 21z"/> <path d="M9240 4828 c-30 -44 -60 -90 -67 -101 -10 -18 -59 -81 -125 -161 -32 -39 -36 -64 -10 -72 18 -6 53 -20 112 -46 19 -9 69 -29 110 -46 135 -54 304 -123 335 -137 17 -7 66 -27 110 -45 44 -17 89 -35 100 -40 11 -5 58 -25 105 -44 47 -19 135 -55 195 -80 l110 -46 32 37 c18 21 33 41 33 45 0 3 22 39 49 80 57 86 80 124 117 195 27 51 27 53 9 73 -10 11 -23 20 -29 20 -6 0 -60 21 -121 46 -185 76 -320 132 -437 180 -62 25 -126 51 -143 59 -16 7 -66 27 -110 45 -44 18 -93 38 -110 45 -118 51 -180 75 -194 75 -9 0 -40 -35 -71 -82z m213 -169 c29 -12 102 -41 162 -66 61 -24 123 -51 138 -59 16 -8 36 -14 46 -14 9 0 21 -4 27 -9 9 -9 120 -56 239 -102 91 -36 139 -63 143 -80 1 -8 -12 -32 -30 -53 l-34 -39 -89 38 c-50 20 -108 44 -130 52 -22 8 -47 18 -55 23 -8 4 -58 24 -110 44 -52 21 -111 44 -130 53 -69 31 -96 42 -175 73 -104 41 -145 62 -145 74 0 22 54 86 72 86 11 0 43 -9 71 -21z"/> <path d="M8765 4270 c-55 -50 -111 -98 -125 -107 -14 -10 -49 -37 -78 -60 -29 -24 -66 -50 -82 -58 -43 -22 -28 -41 61 -76 41 -17 88 -36 106 -44 17 -8 34 -15 37 -15 3 0 29 -10 58 -23 29 -13 73 -32 98 -42 25 -10 68 -28 95 -40 28 -13 61 -26 75 -30 14 -4 53 -20 88 -36 34 -16 68 -29 75 -29 7 0 17 -4 23 -8 5 -4 36 -18 69 -31 33 -13 88 -36 123 -52 34 -16 66 -29 71 -29 5 0 22 -6 38 -14 15 -8 48 -22 73 -31 25 -9 59 -23 75 -30 17 -7 50 -21 74 -31 l44 -18 81 86 c129 136 157 168 208 234 l48 63 -27 20 c-14 12 -32 21 -39 21 -8 0 -22 4 -32 9 -22 12 -85 39 -187 81 -44 18 -93 38 -110 45 -16 7 -66 28 -110 45 -44 18 -96 39 -115 48 -48 21 -87 37 -140 57 -25 10 -58 23 -75 30 -16 8 -82 34 -145 60 -63 26 -126 52 -140 58 -44 19 -95 37 -105 37 -5 -1 -55 -41 -110 -90z m191 -135 c22 -9 48 -20 59 -24 25 -11 207 -86 358 -147 61 -25 126 -51 142 -59 17 -7 66 -27 110 -45 186 -76 191 -81 130 -140 -34 -33 -36 -34 -73 -21 -20 7 -50 18 -67 26 -16 7 -66 28 -110 45 -44 18 -89 36 -100 40 -11 5 -40 17 -65 28 -25 11 -81 34 -125 51 -82 33 -129 53 -178 77 -16 8 -35 14 -42 14 -7 0 -26 6 -42 14 -35 18 -70 33 -105 46 -16 5 -28 14 -28 19 0 11 79 91 90 91 4 0 25 -7 46 -15z"/> <path d="M8180 3860 c-25 -16 -51 -29 -59 -29 -8 -1 -22 -7 -30 -14 -13 -12 -65 -34 -216 -96 -60 -25 -82 -33 -136 -51 -32 -11 -67 -20 -78 -20 -25 0 -36 -17 -22 -33 5 -7 36 -23 68 -36 32 -12 72 -28 88 -36 17 -7 48 -20 70 -29 22 -9 53 -23 68 -31 16 -8 35 -15 42 -15 7 0 26 -6 42 -14 15 -8 80 -36 143 -61 109 -44 141 -57 200 -83 14 -6 50 -21 80 -33 30 -11 69 -27 85 -34 17 -7 66 -28 110 -45 44 -18 96 -39 115 -48 57 -24 170 -71 295 -121 11 -5 37 -16 58 -25 21 -9 49 -16 62 -16 22 0 112 52 126 73 3 5 18 16 32 25 43 29 170 128 221 174 31 28 47 50 45 62 -3 11 -33 30 -89 53 -121 50 -141 58 -180 76 -19 8 -75 31 -125 51 -49 21 -99 41 -110 46 -44 18 -255 104 -325 132 -85 34 -120 49 -170 70 -19 9 -71 30 -115 48 -96 39 -140 58 -178 76 -41 20 -66 16 -117 -16z m147 -196 c69 -30 97 -42 178 -74 44 -17 96 -38 115 -47 66 -28 95 -40 140 -58 25 -10 59 -23 75 -30 17 -8 82 -35 145 -60 225 -92 270 -113 270 -124 0 -6 -21 -26 -47 -46 -32 -24 -53 -34 -67 -30 -34 10 -105 38 -199 79 -17 7 -68 28 -112 46 -44 17 -93 38 -110 45 -16 7 -66 27 -110 45 -44 18 -89 36 -100 41 -11 4 -49 20 -85 34 -36 15 -80 33 -97 41 -18 8 -51 21 -74 30 -23 8 -47 18 -53 23 -6 4 -23 11 -38 15 -45 10 -35 29 32 66 44 24 88 25 137 4z"/> <path d="M7209 3550 c-15 -4 -69 -11 -120 -15 -143 -10 -129 11 -129 -189 0 -140 3 -176 15 -186 21 -17 87 -50 101 -50 7 0 25 -6 41 -14 51 -25 97 -44 178 -76 44 -17 87 -35 95 -39 8 -4 58 -25 110 -45 52 -21 109 -43 125 -50 17 -7 46 -20 65 -28 19 -9 71 -30 115 -48 44 -17 94 -38 110 -45 25 -10 119 -49 210 -85 11 -5 40 -17 65 -28 141 -62 205 -84 230 -78 43 8 331 145 430 204 19 12 49 29 67 37 45 23 57 39 39 54 -15 12 -95 45 -153 62 -18 5 -35 14 -38 19 -4 6 -13 10 -21 10 -7 0 -43 14 -77 30 -35 17 -69 30 -75 30 -6 0 -23 6 -39 14 -15 8 -68 31 -118 51 -49 21 -94 41 -100 46 -5 5 -18 9 -28 9 -10 0 -31 6 -45 14 -15 8 -63 29 -107 46 -44 18 -95 39 -112 46 -18 8 -48 20 -65 28 -18 7 -69 28 -113 46 -44 17 -93 38 -110 45 -16 7 -66 27 -110 45 -44 18 -93 38 -110 45 -235 102 -269 113 -326 95z m89 -195 c23 -8 50 -19 60 -24 9 -5 53 -23 97 -41 44 -17 94 -38 110 -45 17 -7 66 -27 110 -45 44 -18 94 -38 110 -45 17 -7 66 -28 110 -45 44 -18 95 -39 113 -46 77 -33 100 -42 142 -59 42 -17 65 -26 143 -59 17 -7 68 -28 112 -46 102 -41 130 -56 130 -70 0 -7 -29 -24 -64 -39 -60 -25 -68 -26 -103 -14 -21 7 -46 17 -56 22 -9 5 -37 17 -62 26 -25 9 -60 23 -77 31 -18 8 -48 20 -65 28 -18 8 -53 22 -78 31 -42 16 -63 25 -142 59 -18 7 -69 28 -113 46 -44 17 -93 38 -110 45 -16 7 -66 27 -110 45 -44 18 -93 38 -110 45 -115 51 -252 105 -262 105 -15 0 -33 32 -33 59 0 49 64 65 148 36z"/> <path d="M6967 2943 c-4 -3 -7 -154 -7 -333 0 -259 3 -330 13 -338 21 -18 519 20 555 41 6 5 49 14 95 22 108 18 162 29 217 44 25 7 70 19 100 27 121 33 189 57 184 65 -6 10 -103 57 -174 84 -25 9 -58 23 -75 30 -16 7 -48 20 -70 29 -22 9 -53 23 -68 31 -16 8 -36 15 -45 15 -9 0 -26 7 -36 15 -11 8 -26 15 -33 15 -7 0 -42 14 -76 30 -35 17 -69 30 -75 30 -6 0 -23 6 -39 14 -15 7 -44 20 -63 28 -19 8 -52 23 -73 32 -21 9 -44 16 -51 16 -8 0 -19 7 -26 15 -7 8 -21 15 -32 15 -11 0 -32 6 -46 14 -46 24 -149 65 -163 66 -3 0 -9 -3 -12 -7z m286 -299 c34 -14 81 -34 104 -45 24 -10 45 -19 48 -19 4 0 25 -9 48 -19 23 -10 51 -21 62 -23 11 -2 21 -10 23 -19 3 -17 -22 -25 -133 -39 -33 -4 -100 -13 -149 -19 -72 -9 -91 -9 -98 1 -9 16 -11 192 -1 201 11 12 32 8 96 -19z"/> </g> </svg> 