 <svg  version="1.0" xmlns="http://www.w3.org/2000/svg"  width="768.000000pt" height="768.000000pt" viewBox="0 0 768.000000 768.000000"  preserveAspectRatio="xMidYMid meet">  <g transform="translate(0.000000,768.000000) scale(0.100000,-0.100000)" fill="#ffffff" stroke="none"> <path d="M3503 7668 c1 -9 -23 -15 -83 -21 -273 -24 -682 -121 -940 -223 -36 -14 -83 -33 -105 -41 -82 -32 -341 -157 -400 -193 -16 -10 -52 -31 -80 -46 -27 -15 -76 -44 -108 -65 -32 -22 -61 -39 -63 -39 -3 0 -25 -15 -49 -32 -23 -18 -54 -41 -66 -50 -214 -152 -284 -212 -489 -418 -157 -156 -207 -212 -285 -309 -44 -56 -70 -91 -133 -180 -9 -12 -30 -42 -47 -65 -37 -51 -39 -55 -120 -191 -36 -60 -70 -117 -75 -125 -30 -51 -157 -318 -185 -390 -9 -25 -23 -58 -30 -75 -29 -63 -88 -243 -104 -315 -4 -19 -13 -45 -19 -57 -7 -12 -12 -32 -12 -44 0 -12 -6 -45 -14 -73 -67 -237 -96 -505 -96 -886 0 -343 14 -504 66 -760 28 -134 90 -372 115 -438 5 -13 18 -52 30 -85 11 -34 26 -75 33 -92 8 -16 22 -50 31 -75 23 -59 61 -140 125 -270 57 -116 67 -134 148 -268 32 -51 62 -101 67 -111 9 -15 41 -60 140 -197 47 -64 126 -163 175 -218 58 -65 323 -331 375 -377 60 -52 182 -150 229 -184 22 -16 73 -53 113 -82 40 -29 74 -53 77 -53 3 0 31 -17 63 -39 32 -21 81 -50 108 -65 28 -15 64 -36 80 -47 17 -10 37 -21 45 -25 8 -3 22 -9 30 -14 45 -26 271 -132 328 -154 139 -53 229 -85 332 -117 222 -69 490 -125 705 -146 104 -10 726 -10 830 0 278 27 680 121 873 203 18 8 39 14 46 14 12 0 86 30 206 83 55 24 279 134 300 147 16 10 230 138 259 155 15 9 62 42 197 140 142 103 228 179 414 365 182 181 260 270 365 414 100 138 131 182 140 198 6 9 30 50 54 90 25 40 51 84 59 98 7 14 21 39 32 55 37 60 161 319 195 405 9 25 22 59 29 75 22 52 96 280 121 370 56 203 98 430 110 588 7 86 13 110 26 101 5 -3 9 129 9 316 0 187 -4 319 -9 316 -13 -9 -19 15 -26 101 -12 158 -54 384 -110 588 -26 96 -97 314 -121 370 -7 17 -20 50 -29 75 -32 82 -151 331 -197 410 -32 55 -131 221 -148 246 -29 44 -94 139 -102 149 -4 6 -27 34 -50 64 -24 30 -61 77 -83 105 -60 78 -106 127 -265 286 -159 159 -208 205 -286 265 -28 22 -75 59 -105 83 -30 23 -58 46 -64 50 -11 8 -112 77 -150 102 -18 12 -198 120 -265 160 -23 14 -249 125 -300 147 -132 59 -283 116 -393 148 -26 8 -71 21 -100 30 -28 9 -70 20 -92 24 -22 4 -58 13 -80 19 -109 29 -334 68 -465 79 -60 6 -84 12 -82 21 1 9 -69 12 -328 12 -259 0 -329 -3 -327 -12z m2467 -2117 c30 -11 71 -28 90 -37 58 -29 161 -142 200 -219 l35 -70 0 -1395 c0 -1518 4 -1392 -46 -1480 -5 -8 -14 -26 -19 -38 -16 -37 -121 -137 -170 -163 -25 -13 -67 -31 -95 -41 -47 -17 -153 -18 -2135 -18 -2037 0 -2087 0 -2140 19 -90 32 -118 50 -188 119 -44 44 -79 91 -102 137 l-35 70 0 1395 0 1395 35 70 c42 84 145 192 210 222 25 11 61 28 80 36 31 14 254 16 2130 16 2048 1 2097 1 2150 -18z"/> <path d="M2160 5168 c0 -7 19 -26 42 -42 35 -25 219 -170 338 -266 19 -16 63 -50 97 -77 62 -48 152 -120 293 -233 41 -33 111 -88 155 -122 44 -34 85 -67 90 -74 6 -6 39 -33 75 -60 69 -52 85 -64 134 -105 17 -14 59 -46 93 -72 34 -26 68 -53 75 -60 7 -7 42 -35 78 -62 36 -27 90 -71 121 -97 31 -27 66 -48 78 -48 19 0 81 42 130 88 8 7 57 47 110 88 167 129 225 175 251 197 14 13 61 50 105 85 44 34 114 89 155 122 41 33 111 88 155 122 44 34 85 67 90 74 6 6 39 33 75 60 36 26 71 54 79 62 8 7 57 47 110 87 137 106 262 205 283 225 10 9 43 34 73 56 30 21 55 45 55 52 0 9 -341 12 -1670 12 -1329 0 -1670 -3 -1670 -12z"/> <path d="M1760 3742 l0 -1218 30 -22 29 -22 2013 0 2013 1 27 22 28 23 0 1194 c0 657 0 1205 0 1218 0 24 -15 29 -34 10 -20 -20 -104 -88 -161 -133 -124 -95 -243 -189 -280 -220 -22 -18 -68 -55 -102 -82 -62 -49 -158 -125 -293 -233 -41 -33 -118 -94 -170 -135 -52 -41 -127 -101 -167 -132 -40 -32 -118 -94 -175 -137 -57 -44 -107 -84 -113 -90 -5 -7 -46 -40 -90 -74 -44 -34 -114 -89 -155 -122 -270 -216 -307 -234 -397 -193 -37 17 -148 95 -168 117 -5 7 -46 40 -90 74 -44 34 -114 89 -155 122 -41 33 -111 88 -155 122 -44 35 -91 72 -105 85 -14 12 -53 43 -87 70 -198 154 -279 217 -283 223 -3 3 -34 28 -70 55 -36 26 -69 53 -75 59 -5 7 -46 40 -90 74 -44 34 -114 89 -155 122 -41 33 -111 88 -155 122 -44 34 -86 68 -93 75 -7 7 -41 34 -75 60 -34 26 -68 53 -75 60 -7 7 -41 34 -75 60 -34 26 -63 51 -65 55 -2 4 -10 8 -18 8 -12 0 -14 -174 -14 -1218z"/> </g> </svg> 