<?xml version="1.0" standalone="no"?>
<!DOCTYPE svg PUBLIC "-//W3C//DTD SVG 20010904//EN"
 "http://www.w3.org/TR/2001/REC-SVG-20010904/DTD/svg10.dtd">
<svg version="1.0" xmlns="http://www.w3.org/2000/svg"
 width="900.000000pt" height="789.000000pt" viewBox="0 0 900.000000 789.000000"
 preserveAspectRatio="xMidYMid meet">
<metadata>
Created by potrace 1.10, written by Peter Selinger 2001-2011
</metadata>
<g transform="translate(0.000000,789.000000) scale(0.100000,-0.100000)"
fill="#000000" stroke="none">
<path d="M4365 7192 c-10 -6 -85 -128 -85 -137 0 -2 -27 -49 -60 -105 -33 -56
-60 -103 -60 -105 0 -4 -114 -200 -130 -225 -6 -8 -14 -24 -19 -36 -5 -11 -28
-51 -50 -88 -23 -36 -41 -68 -41 -70 0 -3 -27 -50 -60 -106 -33 -56 -60 -103
-60 -105 0 -2 -27 -49 -60 -105 -33 -56 -60 -103 -60 -105 0 -2 -26 -48 -58
-102 -32 -54 -61 -105 -65 -113 -4 -8 -13 -24 -20 -35 -7 -11 -30 -52 -52 -90
-22 -39 -45 -79 -52 -90 -7 -11 -16 -27 -20 -35 -4 -8 -26 -48 -50 -88 -24
-40 -43 -74 -43 -76 0 -4 -140 -246 -160 -276 -5 -8 -16 -28 -24 -45 -8 -16
-29 -52 -45 -80 -17 -27 -34 -57 -38 -65 -4 -8 -25 -46 -48 -85 -22 -38 -44
-77 -48 -85 -4 -8 -13 -24 -20 -35 -7 -11 -30 -51 -52 -90 -22 -38 -45 -79
-52 -90 -7 -11 -16 -27 -20 -35 -4 -8 -33 -59 -65 -113 -32 -54 -58 -100 -58
-103 0 -2 -27 -49 -60 -105 -33 -55 -60 -102 -60 -104 0 -4 -84 -150 -100
-175 -6 -8 -13 -22 -17 -30 -4 -8 -40 -71 -80 -139 -40 -67 -73 -125 -73 -127
0 -2 -20 -38 -45 -80 -25 -41 -45 -77 -45 -80 0 -2 -27 -49 -60 -105 -33 -55
-60 -102 -60 -104 0 -2 -19 -36 -43 -77 -24 -40 -46 -80 -50 -88 -4 -8 -16
-28 -27 -45 -11 -16 -23 -37 -27 -45 -8 -18 -89 -159 -103 -180 -6 -8 -13 -22
-17 -30 -4 -8 -25 -46 -48 -85 -22 -38 -44 -77 -48 -85 -4 -8 -13 -24 -20 -35
-7 -11 -30 -51 -52 -90 -22 -38 -45 -79 -52 -90 -7 -11 -16 -27 -20 -35 -4 -8
-26 -46 -48 -85 -23 -38 -44 -77 -48 -85 -4 -8 -16 -28 -27 -45 -11 -16 -26
-43 -34 -60 -8 -16 -29 -52 -45 -80 -17 -27 -34 -57 -38 -65 -4 -8 -25 -46
-48 -85 -22 -38 -44 -77 -48 -85 -4 -8 -13 -24 -20 -35 -7 -11 -30 -51 -52
-90 -22 -38 -45 -79 -52 -90 -7 -11 -16 -27 -20 -35 -4 -8 -32 -58 -63 -110
-31 -52 -59 -102 -63 -110 -4 -8 -13 -24 -20 -35 -7 -11 -30 -52 -52 -90 -22
-39 -45 -79 -52 -90 -7 -11 -16 -27 -20 -35 -4 -8 -26 -48 -50 -88 -24 -40
-43 -75 -43 -77 0 -2 -20 -38 -45 -78 -25 -41 -45 -78 -45 -82 0 -5 -6 -16
-14 -24 -24 -28 -66 -111 -66 -131 0 -20 11 -20 663 -20 506 0 668 3 686 13
20 10 56 59 78 107 4 8 26 48 50 88 24 41 43 75 43 77 0 2 26 47 58 102 32 54
62 105 66 113 4 8 12 24 19 35 7 11 30 52 52 90 22 39 45 79 52 90 7 11 15 27
19 35 4 8 34 59 66 113 32 55 58 101 58 103 0 2 19 36 43 76 24 40 46 80 50
88 4 8 13 24 20 35 7 11 30 51 52 90 22 38 45 79 52 90 7 11 15 27 19 35 4 8
34 59 66 113 32 55 58 101 58 103 0 2 27 49 60 105 33 55 60 102 60 104 0 2
19 36 43 77 24 40 47 80 51 88 4 8 12 24 19 35 7 11 37 63 67 115 30 52 60
104 67 115 7 11 15 27 19 35 10 19 91 160 104 180 6 8 13 22 17 30 3 8 26 48
50 87 23 40 43 75 43 78 0 2 18 35 41 71 22 37 45 77 50 88 5 12 18 35 29 51
11 17 23 37 27 45 4 8 25 47 48 85 22 39 44 77 48 85 4 8 13 24 20 35 7 11 30
52 52 90 22 39 45 79 52 90 7 11 16 27 20 35 4 8 26 47 48 85 23 39 45 77 49
85 4 8 12 24 19 35 7 11 30 51 52 90 22 38 45 79 52 90 7 11 15 27 19 35 4 8
34 59 66 113 32 55 58 101 58 103 0 4 38 70 100 174 5 8 21 38 36 65 37 70 58
82 73 42 5 -13 28 -54 50 -91 23 -36 41 -69 41 -71 0 -3 20 -38 43 -78 24 -39
47 -79 50 -87 4 -8 11 -22 17 -30 13 -20 94 -161 104 -180 4 -8 12 -24 19 -35
7 -11 37 -63 67 -115 30 -52 60 -104 67 -115 7 -11 15 -27 19 -35 4 -8 26 -46
49 -85 22 -38 44 -77 48 -85 4 -8 13 -24 20 -35 7 -11 30 -51 52 -90 22 -38
45 -79 52 -90 7 -11 15 -27 19 -35 4 -8 26 -46 49 -85 22 -38 44 -77 48 -85 4
-8 13 -24 20 -35 7 -11 30 -52 52 -90 22 -39 45 -79 52 -90 7 -11 15 -27 19
-35 4 -8 27 -47 51 -87 24 -39 43 -74 43 -76 0 -5 110 -197 130 -227 6 -8 13
-22 17 -30 4 -8 33 -59 65 -113 32 -54 58 -100 58 -102 0 -2 27 -49 60 -105
33 -56 60 -103 60 -106 0 -2 18 -34 41 -70 22 -37 45 -77 50 -88 6 -12 15 -30
22 -41 7 -11 37 -63 67 -115 30 -52 60 -103 65 -112 6 -9 22 -39 36 -65 15
-26 36 -64 48 -83 11 -19 24 -42 28 -50 4 -8 24 -44 46 -79 21 -35 43 -74 48
-85 6 -12 15 -30 22 -41 7 -11 30 -51 52 -90 22 -38 45 -79 52 -90 7 -11 16
-27 20 -35 4 -8 32 -58 63 -110 31 -52 59 -102 63 -110 4 -8 13 -24 20 -35 7
-11 30 -52 52 -90 22 -39 45 -79 52 -90 7 -11 16 -27 20 -35 4 -8 26 -48 50
-88 24 -40 43 -77 43 -83 0 -26 77 -29 711 -29 601 0 660 1 666 16 3 9 1 24
-5 33 -7 9 -15 23 -19 31 -4 8 -33 59 -65 113 -32 55 -58 101 -58 104 0 3 -20
39 -45 80 -25 40 -45 75 -45 77 0 2 -27 50 -60 105 -33 56 -60 103 -60 105 0
3 -26 49 -58 103 -32 54 -61 105 -65 113 -4 8 -13 24 -20 35 -7 11 -30 51 -52
90 -22 38 -45 79 -52 90 -7 11 -16 27 -20 35 -9 19 -90 160 -103 180 -6 8 -13
22 -17 30 -4 8 -33 59 -65 113 -32 54 -58 100 -58 102 0 3 -77 137 -100 175
-5 8 -21 38 -36 65 -14 28 -35 62 -45 76 -10 15 -23 37 -29 50 -5 13 -14 31
-20 39 -25 40 -93 155 -101 174 -5 12 -13 28 -19 36 -14 22 -95 162 -103 180
-4 8 -16 29 -27 45 -11 17 -23 37 -27 45 -8 18 -89 159 -103 180 -6 8 -13 22
-17 30 -4 8 -26 48 -50 88 -24 40 -43 75 -43 77 0 4 -29 55 -100 175 -10 17
-87 153 -105 185 -6 11 -23 39 -38 62 -15 24 -27 45 -27 48 0 2 -19 37 -43 77
-24 40 -46 80 -50 88 -4 8 -13 24 -20 35 -7 11 -30 51 -52 90 -22 38 -45 79
-52 90 -7 11 -16 27 -20 35 -4 8 -33 59 -65 113 -32 54 -58 100 -58 102 0 2
-27 49 -60 105 -33 56 -60 103 -60 105 0 2 -27 49 -60 105 -33 56 -60 103 -60
104 0 2 -46 84 -103 182 -57 99 -106 186 -110 194 -4 8 -16 29 -27 45 -11 17
-24 39 -29 51 -5 11 -28 51 -50 88 -23 36 -41 68 -41 70 0 3 -27 50 -60 106
-33 56 -60 103 -60 105 0 2 -27 49 -60 105 -33 56 -60 103 -60 105 0 2 -26 48
-58 102 -32 54 -61 105 -65 113 -4 8 -13 24 -20 35 -7 11 -30 52 -52 90 -22
39 -45 79 -52 90 -7 11 -16 27 -20 35 -4 8 -26 48 -50 88 -24 40 -43 75 -43
77 0 3 -12 24 -27 48 -15 23 -32 51 -38 62 -25 45 -102 181 -133 234 -18 31
-37 65 -42 76 -6 11 -14 27 -20 35 -22 34 -96 166 -103 183 -7 18 -16 21 -32
9z"/>
<path d="M4346 2987 c-13 -17 -30 -43 -36 -57 -6 -14 -16 -34 -23 -45 -7 -11
-30 -52 -52 -90 -22 -39 -45 -79 -52 -90 -7 -11 -16 -27 -20 -35 -4 -8 -26
-46 -48 -85 -23 -38 -44 -77 -48 -85 -4 -8 -16 -28 -27 -45 -11 -16 -23 -37
-27 -45 -4 -8 -26 -48 -50 -88 -24 -41 -43 -75 -43 -77 0 -2 -27 -49 -60 -104
-33 -56 -60 -103 -60 -106 0 -3 -18 -35 -41 -71 -22 -37 -45 -77 -50 -88 -5
-12 -18 -34 -29 -51 -11 -16 -23 -37 -27 -45 -8 -18 -89 -159 -103 -180 -6 -8
-13 -22 -17 -30 -4 -8 -26 -48 -50 -88 -24 -41 -43 -75 -43 -77 0 -2 -27 -49
-60 -104 -33 -56 -60 -103 -60 -105 0 -4 -112 -199 -130 -226 -6 -8 -13 -22
-17 -30 -4 -8 -33 -59 -65 -113 -32 -55 -58 -100 -58 -102 0 -2 -20 -38 -46
-80 -25 -43 -44 -85 -42 -94 3 -15 117 -16 1411 -19 1197 -2 1408 0 1413 12 5
12 -22 71 -56 126 -19 29 -96 165 -103 180 -4 8 -16 29 -27 45 -11 17 -23 37
-27 45 -8 18 -89 159 -103 180 -6 8 -13 22 -17 30 -4 8 -25 47 -48 85 -22 39
-44 77 -48 85 -4 8 -13 24 -20 35 -7 11 -30 51 -52 90 -22 38 -45 79 -52 90
-7 11 -15 27 -19 35 -4 8 -26 47 -49 85 -22 39 -44 77 -48 85 -4 8 -13 24 -20
35 -7 11 -30 52 -52 90 -22 39 -44 78 -50 87 -5 9 -23 41 -39 70 -16 29 -37
65 -47 79 -10 15 -23 37 -29 50 -5 13 -14 31 -20 39 -13 20 -94 161 -103 180
-4 8 -13 24 -20 35 -7 11 -30 51 -52 90 -22 38 -45 79 -52 90 -7 11 -16 27
-20 35 -4 8 -33 59 -65 113 -32 54 -58 100 -58 103 0 2 -18 34 -41 70 -22 37
-45 78 -50 91 -12 31 -23 29 -53 -10z"/>
</g>
</svg>
