<?xml version="1.0" standalone="no"?>
<!DOCTYPE svg PUBLIC "-//W3C//DTD SVG 20010904//EN"
 "http://www.w3.org/TR/2001/REC-SVG-20010904/DTD/svg10.dtd">
<svg version="1.0" xmlns="http://www.w3.org/2000/svg"
 width="1785.000000pt" height="1332.000000pt" viewBox="0 0 1785.000000 1332.000000"
 preserveAspectRatio="xMidYMid meet">
<metadata>
Created by potrace 1.10, written by Peter Selinger 2001-2011
</metadata>
<g transform="translate(0.000000,1332.000000) scale(0.100000,-0.100000)"
fill="#000000" stroke="none">
<path d="M4600 10031 c-16 -5 -24 -13 -22 -24 2 -13 -10 -17 -58 -23 -39 -4
-74 -15 -96 -30 -19 -13 -41 -24 -48 -24 -44 0 -186 -102 -186 -132 0 -8 -18
-22 -40 -31 -22 -8 -43 -24 -46 -34 -4 -10 -15 -25 -26 -33 -12 -11 -22 -37
-28 -78 -10 -72 -15 -82 -40 -82 -19 0 -30 -19 -30 -50 0 -9 -12 -44 -27 -76
-26 -57 -27 -67 -31 -261 -5 -223 8 -358 38 -396 10 -12 21 -44 25 -70 5 -35
12 -47 24 -47 22 0 41 -19 41 -41 0 -9 11 -24 24 -32 14 -9 29 -35 37 -63 9
-31 21 -49 36 -55 11 -4 37 -24 57 -44 20 -20 50 -41 66 -46 18 -7 30 -19 32
-32 2 -16 14 -24 46 -32 24 -5 48 -18 53 -28 6 -9 17 -17 26 -17 9 0 24 -6 32
-14 9 -7 45 -18 80 -25 35 -6 72 -18 81 -26 10 -9 42 -22 72 -30 119 -29 175
-46 218 -64 25 -10 79 -29 120 -41 110 -33 118 -36 135 -70 9 -18 23 -30 36
-30 34 0 96 -38 103 -62 3 -13 19 -31 36 -40 17 -10 29 -23 28 -30 -2 -7 8
-14 20 -16 42 -6 61 -70 68 -228 6 -137 -1 -222 -29 -348 -11 -51 -17 -61 -39
-67 -28 -7 -88 -65 -88 -85 0 -20 -50 -54 -80 -54 -15 0 -35 -9 -45 -20 -10
-11 -37 -22 -64 -25 -25 -4 -67 -15 -93 -26 -59 -24 -255 -27 -333 -4 -133 38
-219 73 -229 94 -5 11 -14 21 -20 21 -31 1 -156 108 -156 135 0 9 -12 32 -27
51 -15 21 -29 56 -34 87 -6 34 -16 57 -29 67 -14 11 -24 34 -30 70 -5 30 -16
84 -24 120 -9 36 -16 79 -16 96 0 39 -13 43 -104 33 -47 -4 -72 -12 -78 -23
-5 -9 -20 -16 -33 -16 -13 0 -36 -5 -50 -10 l-26 -10 4 -148 c4 -155 27 -269
59 -295 8 -6 20 -38 26 -70 7 -32 21 -71 32 -86 11 -16 24 -40 30 -55 6 -16
17 -26 29 -26 22 0 41 -27 41 -59 0 -11 9 -25 20 -31 11 -6 20 -15 20 -21 0
-32 37 -83 71 -98 21 -10 55 -39 77 -65 53 -64 172 -116 266 -116 22 0 57 -5
76 -11 129 -40 334 -51 430 -23 30 8 103 24 162 34 65 11 118 27 135 39 15 10
45 22 66 26 30 5 40 12 51 38 19 46 65 97 87 97 20 0 59 53 59 80 0 8 20 44
45 79 25 36 45 74 45 86 0 12 11 34 25 49 14 15 25 34 25 43 0 9 6 24 14 32
36 40 66 381 47 531 -22 169 -29 196 -69 275 -22 44 -43 90 -47 103 -3 12 -22
39 -41 60 -19 20 -37 46 -40 57 -10 32 -35 55 -60 55 -14 0 -28 9 -35 23 -7
12 -21 28 -31 36 -11 7 -17 19 -14 26 7 19 -12 32 -60 40 -27 4 -52 17 -69 35
-15 16 -42 32 -59 35 -88 18 -105 26 -108 48 -3 19 -12 23 -65 32 -40 6 -67
17 -75 28 -10 14 -37 20 -118 28 -58 6 -123 18 -145 26 -49 18 -91 30 -126 37
-15 4 -29 14 -32 26 -6 22 -44 40 -84 40 -17 0 -27 7 -30 21 -4 12 -17 22 -35
26 -16 3 -32 12 -35 19 -2 6 -15 15 -28 18 -24 6 -78 90 -91 140 -3 15 -13 30
-22 35 -21 12 -28 86 -22 219 4 85 8 105 23 113 9 6 17 20 17 32 0 47 65 138
108 151 15 5 22 15 22 33 0 16 7 27 20 30 10 3 26 16 35 29 12 19 24 24 56 24
22 0 54 8 72 18 27 14 59 17 213 17 159 0 184 -2 201 -17 13 -12 36 -18 64
-18 37 0 50 -5 75 -32 17 -18 34 -45 38 -60 5 -20 13 -28 29 -28 13 0 40 -15
60 -34 32 -29 37 -40 37 -79 0 -30 6 -51 18 -63 9 -9 22 -33 27 -53 6 -20 20
-40 32 -45 17 -8 23 -24 32 -83 6 -41 11 -87 11 -103 0 -17 6 -30 13 -31 53
-3 126 5 144 17 12 8 32 14 44 14 36 0 90 47 84 73 -2 12 -7 41 -9 63 -2 23
-9 50 -14 61 -6 10 -14 48 -17 83 -8 75 -32 158 -51 181 -8 8 -14 22 -14 30 0
8 -15 55 -34 104 -27 70 -39 91 -55 93 -12 2 -28 16 -36 32 -8 16 -24 34 -35
40 -11 6 -20 21 -20 34 0 25 -17 36 -52 36 -12 0 -37 17 -57 39 -29 31 -46 40
-85 45 -31 5 -55 15 -65 28 -12 14 -33 21 -66 25 -81 7 -95 12 -95 32 0 13
-10 20 -31 25 -42 8 -338 6 -369 -3z"/>
<path d="M10494 9986 c-47 -21 -61 -75 -24 -98 11 -7 20 -20 20 -29 0 -9 11
-37 25 -63 18 -33 25 -63 25 -100 0 -29 9 -79 20 -112 11 -32 20 -71 20 -86 0
-25 22 -58 39 -58 3 0 12 -21 19 -47 8 -27 18 -56 23 -65 5 -10 9 -42 9 -71 0
-31 6 -61 15 -73 8 -10 15 -35 15 -54 0 -19 7 -43 15 -53 7 -11 12 -24 9 -31
-2 -6 11 -30 31 -53 23 -27 35 -51 35 -70 0 -16 7 -38 15 -49 9 -12 14 -43 15
-86 0 -37 5 -70 11 -73 5 -4 8 -12 6 -18 -2 -7 5 -34 16 -62 10 -27 22 -65 27
-84 5 -18 13 -38 19 -44 6 -6 11 -21 11 -33 0 -13 8 -24 21 -27 18 -5 20 -12
18 -69 -1 -35 3 -72 8 -83 15 -30 35 -86 40 -118 3 -15 9 -30 14 -33 5 -3 9
-16 9 -29 0 -13 5 -27 10 -30 6 -3 10 -17 10 -30 0 -15 7 -26 20 -30 22 -7 28
-26 32 -95 3 -44 4 -45 41 -48 29 -3 38 1 43 15 3 10 10 26 15 35 5 10 9 27 9
39 0 12 8 23 20 26 17 5 20 14 20 68 0 47 6 73 25 109 14 26 25 57 25 68 0 23
17 81 31 110 5 10 9 34 9 53 0 29 5 37 25 45 22 8 25 15 25 58 0 27 9 75 20
108 11 32 20 66 20 75 0 9 7 22 15 29 8 7 15 29 15 49 0 20 4 41 8 47 15 17
32 91 32 141 0 43 3 51 25 61 16 8 25 20 25 35 0 13 4 27 9 33 4 5 14 32 20
59 23 92 44 160 52 169 5 6 9 33 9 62 0 50 23 117 55 158 8 10 12 23 9 27 -3
5 2 22 11 38 8 17 15 39 15 49 0 11 7 25 15 32 9 7 15 29 15 51 0 21 5 41 10
44 6 3 10 26 10 51 0 25 5 54 10 65 17 31 2 85 -26 98 -39 18 -1219 15 -1260
-3z"/>
<path d="M1901 9971 c-10 -10 -37 -57 -60 -104 -23 -47 -49 -88 -59 -91 -18
-6 -52 -78 -52 -109 0 -29 -37 -92 -68 -119 -16 -14 -39 -47 -51 -73 -12 -27
-28 -56 -36 -65 -13 -15 -30 -60 -55 -150 -9 -31 -23 -51 -43 -65 -18 -12 -46
-51 -69 -95 -22 -41 -45 -78 -53 -83 -17 -9 -45 -64 -45 -88 0 -18 -23 -77
-41 -109 -5 -8 -13 -24 -18 -35 -10 -23 -52 -70 -68 -76 -15 -6 -83 -152 -83
-178 0 -29 -45 -117 -64 -124 -8 -3 -20 -17 -28 -30 -7 -14 -30 -53 -50 -86
-21 -34 -38 -66 -38 -71 0 -5 -9 -12 -20 -15 -11 -3 -21 -12 -21 -18 -5 -52
-14 -76 -60 -166 -36 -72 -59 -105 -76 -112 -13 -5 -26 -17 -29 -26 -3 -10
-14 -34 -25 -54 -10 -20 -19 -49 -19 -63 0 -15 -11 -44 -25 -64 -14 -20 -25
-41 -25 -47 0 -6 -9 -16 -20 -23 -11 -7 -20 -17 -20 -23 0 -6 -11 -25 -25 -43
-14 -18 -25 -39 -25 -46 0 -6 -13 -29 -30 -50 -19 -24 -30 -50 -30 -69 0 -21
-7 -35 -24 -47 -14 -8 -30 -32 -37 -52 -6 -20 -22 -51 -35 -69 -13 -17 -24
-36 -24 -40 0 -24 -42 -92 -60 -98 -23 -7 -44 -44 -53 -93 -9 -44 -64 -154
-87 -172 -21 -17 -111 -184 -115 -214 -1 -12 -4 -28 -6 -36 -4 -13 38 -15 318
-18 l321 -2 21 26 c12 15 21 33 21 40 0 7 13 20 29 28 18 10 39 37 60 78 17
35 31 67 31 72 0 4 9 20 19 35 11 15 22 43 26 64 4 21 20 51 36 68 15 16 31
40 35 52 4 12 20 38 35 58 16 20 29 44 29 53 0 9 11 21 25 26 14 5 30 22 35
37 6 16 15 36 20 45 6 10 10 27 10 37 0 34 68 172 87 177 18 5 93 122 93 146
0 7 7 22 15 32 8 11 15 30 15 43 0 27 24 78 42 90 14 9 24 23 69 105 17 31 46
70 65 87 22 20 35 43 39 68 8 44 102 243 116 243 13 0 89 121 89 142 0 33 32
103 58 125 14 12 35 43 46 70 50 113 65 134 94 131 20 -2 29 -11 36 -33 9 -31
61 -149 77 -175 5 -8 16 -28 25 -45 9 -16 22 -33 29 -37 18 -11 75 -123 75
-146 0 -11 9 -31 20 -45 11 -14 20 -32 20 -40 0 -9 11 -24 24 -34 24 -18 96
-145 96 -168 0 -7 7 -18 15 -25 8 -7 18 -30 22 -52 4 -27 13 -43 27 -49 13 -6
40 -49 70 -110 29 -61 60 -109 77 -121 15 -12 31 -34 34 -49 4 -16 11 -31 16
-34 5 -4 9 -21 9 -40 0 -19 5 -37 10 -40 6 -4 21 -28 35 -55 14 -27 33 -51 43
-54 12 -4 29 -31 43 -67 13 -34 30 -64 37 -66 6 -3 12 -13 12 -23 0 -10 7 -31
15 -46 8 -16 15 -39 15 -51 0 -12 12 -31 26 -42 27 -21 53 -60 80 -121 40 -87
47 -100 66 -106 22 -7 48 -60 48 -98 0 -14 5 -28 10 -31 6 -3 10 -13 10 -22 0
-9 9 -26 20 -38 10 -11 30 -41 43 -65 l24 -45 338 0 c387 0 379 -2 329 75 -16
23 -34 52 -41 64 -7 11 -19 26 -28 32 -21 15 -65 100 -65 125 0 31 -48 125
-73 144 -7 5 -20 22 -28 36 -8 14 -33 54 -56 90 -25 38 -45 82 -49 107 -4 25
-13 46 -24 52 -9 5 -29 35 -44 67 -51 106 -64 129 -97 164 -42 43 -69 92 -69
123 0 35 -67 162 -95 180 -14 9 -25 26 -25 37 0 11 -11 30 -24 42 -26 24 -56
88 -56 118 0 29 -32 88 -51 94 -16 5 -30 30 -58 102 -7 17 -21 39 -32 49 -10
9 -19 25 -19 35 0 10 -13 27 -30 39 -23 16 -30 29 -30 54 0 19 -7 39 -15 46
-8 7 -15 20 -15 30 0 9 -8 28 -18 41 -11 13 -27 45 -36 71 -11 28 -26 48 -37
51 -11 3 -28 25 -39 50 -11 24 -27 50 -35 57 -8 7 -15 22 -15 34 0 35 -42 125
-62 132 -11 3 -41 51 -74 119 -36 74 -62 115 -75 118 -11 3 -19 14 -19 27 0
19 -21 69 -51 120 -5 8 -12 22 -15 30 -20 51 -51 103 -66 111 -18 10 -68 105
-68 128 0 21 -53 111 -82 141 -16 16 -28 35 -28 43 0 8 -7 20 -15 27 -8 7 -15
18 -15 26 0 7 -13 36 -30 64 -16 28 -30 61 -30 73 0 46 -40 67 -69 38z"/>
<path d="M6228 9973 c-10 -2 -20 -14 -23 -26 -3 -12 -4 -771 -3 -1687 l3
-1665 160 0 160 0 5 1372 c3 754 8 1375 13 1379 4 4 7 -3 7 -15 0 -28 17 -62
41 -81 12 -10 22 -39 29 -81 5 -37 17 -83 25 -102 9 -22 15 -69 15 -119 0 -61
6 -95 20 -127 11 -24 25 -75 32 -112 9 -56 14 -69 29 -69 12 0 21 -10 25 -27
3 -16 8 -37 11 -48 6 -21 24 -140 48 -310 17 -125 27 -154 59 -183 18 -15 25
-35 30 -83 20 -177 55 -362 69 -371 8 -4 18 -27 22 -51 4 -23 11 -46 15 -52 4
-5 11 -30 15 -55 4 -25 16 -60 26 -78 11 -19 24 -66 30 -105 6 -40 17 -110 24
-157 8 -47 17 -109 21 -138 5 -43 10 -55 29 -62 27 -10 29 -17 45 -130 6 -47
17 -110 24 -140 l12 -55 144 -3 c79 -1 147 1 151 5 4 4 13 37 19 73 6 36 18
78 26 94 8 15 19 60 24 99 6 39 19 84 29 101 10 17 26 78 36 135 9 58 23 114
31 127 8 12 19 53 24 91 12 94 30 173 45 203 7 14 15 45 19 69 4 24 13 56 20
70 20 37 35 96 46 174 5 38 17 81 27 95 13 21 18 52 21 137 4 137 7 155 32
155 21 0 26 11 36 85 4 27 16 61 26 76 13 17 22 53 27 106 5 47 17 100 30 125
11 24 24 66 27 93 4 28 17 77 29 110 12 33 28 98 35 145 7 47 16 98 21 114 5
16 9 50 9 75 0 25 5 64 11 86 7 22 14 63 18 90 5 42 10 51 29 53 12 2 23 2 24
0 2 -2 5 -628 8 -1393 l5 -1390 150 0 150 0 3 1679 c1 1233 -1 1682 -9 1692
-9 11 -54 14 -203 14 -105 0 -197 -4 -203 -8 -7 -5 -20 -33 -29 -63 -9 -30
-20 -58 -24 -64 -4 -5 -11 -32 -15 -60 -4 -27 -15 -63 -25 -80 -10 -16 -23
-66 -30 -110 -25 -179 -29 -194 -49 -214 -12 -12 -21 -34 -21 -50 0 -42 -9
-61 -30 -61 -25 0 -30 -27 -30 -161 0 -98 -3 -120 -19 -140 -24 -32 -30 -52
-41 -147 -5 -45 -18 -98 -28 -119 -11 -21 -23 -58 -27 -83 -4 -24 -13 -54 -21
-65 -11 -18 -31 -117 -49 -250 -4 -27 -15 -60 -25 -72 -10 -13 -21 -50 -25
-86 -9 -76 -28 -160 -48 -207 -8 -19 -18 -57 -22 -85 -4 -27 -13 -57 -21 -66
-8 -9 -21 -67 -30 -130 -11 -79 -21 -120 -34 -134 -14 -16 -19 -43 -23 -140
-5 -132 -10 -155 -37 -155 -22 0 -30 -19 -30 -73 0 -23 -4 -49 -10 -57 -13
-21 -50 69 -50 123 0 56 -38 275 -55 312 -57 130 -57 129 -94 391 -19 135 -30
167 -63 194 -21 16 -20 15 -53 270 -12 92 -23 143 -35 161 -10 14 -33 82 -50
150 -17 68 -38 138 -46 154 -15 31 -39 158 -54 297 -11 99 -16 113 -44 131
-17 12 -25 31 -34 84 -28 159 -42 255 -42 284 0 17 -7 58 -15 92 -8 34 -17 79
-21 100 -4 28 -9 37 -19 33 -18 -6 -27 8 -35 53 -4 26 -11 37 -30 42 -27 8
-424 9 -452 2z"/>
<path d="M9783 9973 c-7 -3 -13 -14 -13 -26 0 -35 -31 -159 -51 -202 -10 -22
-26 -89 -35 -150 -11 -71 -23 -118 -35 -134 -11 -13 -19 -34 -19 -46 0 -12 -9
-30 -20 -40 -17 -16 -20 -31 -20 -115 0 -123 -7 -160 -30 -160 -22 0 -28 -14
-50 -122 -10 -49 -25 -99 -33 -112 -9 -12 -19 -41 -23 -62 -4 -21 -14 -55 -24
-74 -9 -19 -20 -59 -23 -89 -4 -29 -10 -58 -15 -65 -5 -6 -12 -35 -16 -65 -4
-29 -14 -60 -22 -68 -7 -8 -14 -23 -14 -34 0 -11 -5 -30 -12 -42 -27 -48 -38
-95 -38 -163 0 -92 -9 -137 -26 -130 -20 8 -32 -15 -43 -79 -26 -154 -34 -191
-46 -205 -20 -24 -35 -79 -35 -127 0 -29 -10 -64 -30 -103 -16 -33 -30 -72
-30 -87 0 -15 -9 -43 -20 -61 -11 -18 -20 -43 -20 -57 0 -13 -4 -35 -9 -49 -6
-13 -11 -48 -12 -78 -2 -29 -6 -64 -11 -78 -4 -14 -13 -45 -19 -68 -7 -31 -14
-42 -24 -38 -8 3 -17 1 -20 -4 -7 -12 -35 -144 -45 -215 -4 -33 -13 -89 -19
-125 -20 -121 -35 -110 149 -110 120 0 162 3 164 13 2 6 12 55 21 107 22 126
23 130 44 130 22 0 31 42 31 150 0 61 5 84 25 122 14 26 25 57 25 70 0 13 9
43 20 67 11 24 20 56 20 72 0 16 7 46 15 66 8 19 15 53 15 74 0 34 23 82 60
127 8 9 122 12 503 12 513 0 517 0 517 -42 0 -9 8 -25 18 -35 12 -11 25 -52
36 -108 10 -49 20 -101 23 -115 3 -14 9 -56 13 -94 6 -55 13 -73 33 -90 34
-29 44 -50 56 -131 24 -153 39 -221 55 -250 9 -16 16 -42 16 -57 0 -14 12 -40
26 -57 l26 -31 345 2 345 3 27 85 c16 47 34 110 41 140 7 30 17 60 22 67 5 6
16 49 23 95 8 46 19 108 24 138 13 69 31 173 40 225 5 31 11 40 31 45 22 5 26
13 33 63 5 38 19 73 38 102 l31 45 486 -2 487 -3 18 -37 c10 -21 22 -38 27
-38 4 0 11 -27 15 -60 4 -36 13 -63 21 -68 15 -9 37 -88 49 -181 4 -30 18 -75
31 -99 13 -25 24 -59 25 -76 0 -17 8 -58 17 -91 13 -47 22 -61 38 -63 26 -4
34 -48 34 -178 0 -116 -1 -115 211 -112 158 3 164 4 161 23 -2 11 -7 49 -12
85 -13 92 -33 181 -48 207 -6 12 -12 30 -12 41 0 11 -11 36 -25 57 -18 26 -29
61 -37 119 -7 46 -22 100 -35 125 -13 24 -23 59 -23 78 0 18 -7 50 -15 70 -8
19 -15 52 -15 72 0 43 -23 123 -45 153 -8 13 -15 41 -15 63 0 30 -8 52 -30 81
-16 21 -30 46 -30 55 0 9 -7 33 -15 52 -8 21 -15 67 -15 105 0 98 -8 132 -36
142 -25 10 -47 73 -59 170 -3 31 -14 64 -25 75 -12 13 -22 49 -29 105 -8 63
-16 89 -31 101 -12 11 -23 38 -29 77 -5 33 -17 72 -26 86 -9 13 -23 66 -31
117 -8 51 -19 100 -25 110 -5 10 -9 32 -9 49 0 40 -16 71 -35 64 -10 -4 -17 6
-23 33 -17 72 -31 138 -38 183 -3 24 -12 54 -19 65 -7 11 -16 56 -20 99 -6 69
-11 83 -35 107 -15 16 -32 48 -39 76 -6 26 -20 71 -31 98 -10 28 -23 80 -29
117 -5 37 -16 80 -23 95 l-13 28 -177 0 c-106 0 -181 -4 -187 -10 -6 -6 -17
-53 -26 -105 -33 -201 -41 -235 -56 -238 -25 -5 -39 -40 -50 -125 -6 -45 -17
-98 -24 -117 -7 -19 -16 -57 -19 -84 -4 -27 -13 -60 -21 -73 -9 -12 -17 -35
-19 -50 -21 -160 -30 -194 -55 -206 -24 -11 -26 -18 -33 -107 -4 -67 -13 -107
-27 -135 -12 -21 -21 -53 -21 -70 0 -48 -11 -75 -30 -75 -28 0 -37 -19 -50
-110 -24 -170 -60 -344 -79 -384 -10 -23 -22 -62 -25 -89 -3 -26 -14 -60 -25
-75 -11 -15 -24 -62 -31 -107 -7 -44 -18 -87 -25 -95 -12 -14 -37 -129 -65
-295 -18 -110 -19 -113 -40 -120 -29 -9 -38 -32 -50 -128 -7 -57 -19 -103 -35
-133 -22 -41 -25 -60 -25 -150 0 -104 -5 -118 -40 -119 -10 0 -17 -20 -25 -65
-8 -54 -13 -65 -29 -65 -12 0 -22 9 -26 25 -20 71 -30 124 -30 158 0 25 -9 50
-25 72 -14 19 -25 42 -25 52 0 10 -9 36 -19 56 -11 21 -22 55 -26 75 -4 20
-16 48 -26 61 -13 16 -19 40 -19 74 0 27 -3 77 -6 111 -6 55 -9 61 -30 61 -16
0 -25 7 -28 23 -3 12 -12 60 -21 107 -9 47 -23 92 -31 101 -8 8 -14 29 -14 46
0 17 -7 50 -15 73 -8 23 -15 54 -15 68 0 15 -17 62 -39 107 -21 44 -46 116
-56 160 -9 44 -23 112 -31 150 -8 39 -17 83 -21 98 -3 17 -15 32 -28 37 -23 9
-28 24 -40 127 -3 23 -9 52 -14 65 -5 13 -12 48 -16 78 -4 30 -16 67 -26 81
-10 14 -24 52 -33 85 -21 87 -43 141 -66 164 -17 17 -20 33 -20 124 0 77 -4
107 -14 115 -8 7 -17 30 -21 52 -4 22 -13 43 -21 46 -8 3 -14 12 -14 21 0 9
-9 26 -21 38 -17 18 -27 59 -50 191 -36 213 -40 227 -66 231 -17 2 -22 13 -28
50 -4 28 -21 69 -42 100 l-35 53 -146 -2 c-81 -1 -153 -4 -159 -6z m2505 -445
c10 -13 46 -217 67 -380 3 -26 14 -57 24 -70 10 -13 20 -42 24 -65 3 -23 11
-49 19 -57 14 -13 33 -105 58 -276 6 -40 20 -88 30 -106 11 -17 23 -52 26 -77
5 -33 13 -51 29 -61 28 -18 46 -91 41 -161 -3 -37 2 -63 20 -102 13 -28 24
-61 24 -72 0 -11 5 -42 12 -70 19 -86 42 -81 -403 -81 -369 0 -389 1 -398 19
-11 19 -1 72 18 94 10 13 39 151 51 242 12 96 22 134 36 146 8 6 14 20 14 30
0 11 7 19 15 19 9 0 16 14 20 38 3 20 8 46 11 57 3 11 13 75 23 142 17 113 20
124 49 151 18 17 32 34 32 39 2 57 24 165 40 199 13 26 24 78 30 136 7 70 27
213 40 276 1 8 39 0 48 -10z m-2312 -75 c8 -56 12 -68 29 -72 27 -5 35 -19 35
-66 0 -22 5 -58 11 -80 6 -22 13 -58 15 -80 3 -22 12 -53 20 -70 8 -16 17 -70
20 -120 4 -51 14 -108 24 -131 10 -23 21 -57 25 -75 12 -61 16 -69 34 -69 14
0 21 -13 29 -57 6 -32 15 -78 21 -103 6 -25 17 -94 26 -155 24 -167 34 -202
60 -219 14 -9 29 -34 36 -58 6 -23 17 -51 25 -62 18 -26 18 -60 0 -75 -9 -8
-123 -10 -402 -9 l-389 3 -3 101 c-2 93 0 107 28 177 16 41 30 83 30 93 0 10
6 25 13 33 8 9 19 55 25 103 6 48 20 105 32 128 11 22 23 60 26 83 3 23 9 55
15 71 5 16 9 48 9 70 0 23 7 51 15 63 22 32 42 101 49 172 3 36 12 74 20 85 7
12 21 62 30 111 10 50 23 106 30 125 8 19 17 61 20 93 10 81 31 76 42 -10z"/>
<path d="M1880 7778 c-16 -22 -30 -49 -30 -58 0 -10 -7 -23 -15 -30 -8 -7 -15
-21 -15 -31 0 -10 -11 -26 -24 -35 -26 -16 -66 -84 -66 -110 0 -9 -7 -28 -14
-42 -8 -15 -22 -44 -31 -64 -10 -21 -25 -40 -35 -43 -10 -3 -29 -31 -44 -63
-14 -31 -37 -77 -51 -102 -13 -25 -25 -55 -25 -67 0 -35 -11 -54 -37 -64 -17
-6 -36 -34 -64 -91 -50 -105 -58 -117 -91 -153 -18 -19 -28 -41 -28 -60 0 -30
-31 -103 -48 -114 -11 -7 -42 -66 -42 -81 0 -7 218 -10 700 -10 603 0 700 2
700 14 0 8 -4 18 -10 21 -5 3 -10 14 -10 24 0 30 -40 110 -60 121 -21 11 -31
28 -83 135 -19 39 -46 80 -61 92 -18 16 -26 32 -26 56 0 20 -7 41 -17 50 -10
9 -26 33 -37 54 -10 21 -22 45 -27 53 -5 8 -14 26 -19 39 -6 12 -19 30 -30 40
-30 24 -70 108 -70 144 0 35 -16 63 -65 113 -37 39 -67 87 -90 148 -10 25 -24
51 -31 57 -8 6 -14 24 -14 39 0 74 -43 83 -90 18z"/>
</g>
</svg>
