 <svg  version="1.0" xmlns="http://www.w3.org/2000/svg"  width="768.000000pt" height="768.000000pt" viewBox="0 0 768.000000 768.000000"  preserveAspectRatio="xMidYMid meet">  <g transform="translate(0.000000,768.000000) scale(0.100000,-0.100000)" fill="#ffffff" stroke="none"> <path d="M3760 7566 c-14 -7 -42 -20 -62 -30 -111 -48 -176 -76 -213 -92 -16 -7 -60 -27 -98 -43 -37 -17 -69 -31 -72 -31 -3 0 -35 -14 -72 -31 -38 -16 -81 -36 -98 -43 -16 -7 -47 -20 -68 -29 -20 -9 -53 -23 -72 -31 -20 -9 -51 -22 -70 -31 -19 -8 -51 -22 -70 -30 -19 -9 -50 -22 -70 -31 -68 -29 -100 -43 -145 -63 -25 -11 -92 -40 -149 -64 -105 -45 -156 -81 -172 -124 -5 -14 -9 -118 -9 -232 0 -189 -2 -209 -18 -224 -17 -15 -61 -17 -426 -17 l-407 0 -196 195 -196 196 11 37 c32 104 42 150 42 191 0 74 -31 172 -85 269 -21 38 -119 129 -166 153 -89 47 -139 59 -239 59 -172 0 -285 -58 -395 -200 -25 -32 -45 -65 -45 -72 0 -7 -6 -22 -14 -33 -7 -11 -19 -57 -26 -102 -25 -157 21 -298 137 -419 41 -43 112 -89 173 -113 81 -31 272 -32 328 -2 55 30 65 23 302 -213 205 -203 229 -225 272 -235 31 -7 196 -11 485 -11 328 0 442 -3 451 -12 8 -8 12 -59 12 -163 0 -134 -2 -154 -18 -168 -16 -15 -46 -17 -203 -18 -101 -1 -194 -4 -207 -7 -12 -4 -157 -142 -322 -306 l-301 -299 -104 -5 c-86 -4 -109 -2 -130 12 -14 9 -25 23 -25 32 0 23 -63 113 -112 160 -143 138 -377 173 -548 82 -85 -44 -174 -133 -218 -218 -30 -55 -52 -147 -52 -216 0 -133 45 -238 145 -339 95 -96 172 -133 293 -141 166 -11 291 32 393 135 41 42 99 126 99 145 0 7 9 21 20 31 18 16 36 18 126 16 58 -1 136 1 173 5 l66 6 306 304 305 304 146 0 c107 0 148 -3 156 -13 6 -7 14 -44 17 -82 11 -132 70 -301 148 -430 64 -105 236 -287 377 -400 41 -33 77 -63 80 -66 3 -4 35 -27 73 -53 37 -25 97 -66 133 -91 36 -25 67 -45 69 -45 2 0 32 -19 67 -43 35 -24 70 -46 78 -50 8 -4 29 -16 45 -27 17 -11 39 -24 50 -30 11 -6 34 -19 50 -30 17 -11 39 -24 50 -30 11 -6 34 -19 50 -30 17 -11 39 -24 50 -30 11 -6 34 -19 50 -30 17 -11 45 -26 64 -35 89 -40 65 -50 429 172 134 81 251 153 260 158 55 33 211 140 295 203 149 112 361 323 410 410 7 11 28 46 47 78 74 123 122 263 134 399 4 38 12 75 18 82 8 10 49 13 156 13 l146 0 305 -304 306 -304 66 -6 c37 -4 115 -6 173 -5 90 2 108 0 126 -16 11 -10 20 -24 20 -31 0 -19 58 -103 99 -145 102 -103 227 -146 393 -135 110 7 191 44 281 127 223 204 205 559 -38 737 -64 48 -87 60 -160 83 -152 48 -343 0 -463 -115 -49 -47 -112 -137 -112 -160 0 -9 -11 -23 -25 -32 -20 -13 -45 -16 -129 -12 l-105 3 -298 301 c-240 241 -306 302 -332 307 -19 4 -113 7 -211 7 -159 0 -179 2 -193 18 -14 16 -17 43 -17 168 0 103 4 154 12 162 9 9 123 12 451 12 289 0 454 4 485 11 43 10 67 32 272 235 237 236 247 243 302 213 56 -30 247 -29 328 2 90 35 208 130 243 195 66 125 87 227 67 337 -19 108 -62 191 -139 268 -103 102 -193 139 -341 139 -166 0 -286 -59 -383 -189 -51 -68 -70 -107 -91 -187 -26 -97 -22 -140 26 -296 l11 -37 -196 -196 -196 -195 -409 0 c-383 0 -410 1 -425 18 -15 16 -17 47 -17 225 0 113 -4 216 -9 230 -16 42 -66 79 -162 119 -52 22 -98 44 -104 49 -5 5 -15 9 -22 9 -7 0 -43 14 -80 31 -68 30 -103 46 -168 73 -71 31 -132 58 -238 105 -37 17 -73 31 -80 31 -7 0 -17 4 -23 9 -5 5 -101 48 -213 96 -113 48 -212 91 -220 95 -9 4 -32 14 -51 22 -19 8 -52 23 -73 32 -45 19 -103 20 -137 2z m212 -362 c72 -31 139 -59 147 -64 9 -4 33 -14 54 -23 42 -18 94 -41 147 -64 19 -9 51 -23 70 -31 19 -8 49 -21 65 -28 30 -12 49 -20 165 -72 36 -16 138 -59 226 -97 89 -38 169 -74 178 -81 15 -11 17 -68 16 -670 -1 -363 -5 -686 -9 -719 -14 -98 -66 -219 -139 -319 -96 -133 -336 -341 -520 -451 -9 -6 -44 -28 -77 -51 -34 -22 -67 -43 -75 -47 -8 -4 -28 -16 -45 -27 -16 -11 -37 -23 -45 -27 -8 -4 -31 -18 -50 -31 -19 -13 -44 -28 -55 -33 -11 -5 -32 -17 -46 -27 -61 -39 -143 -85 -153 -85 -13 0 -370 216 -461 278 -34 23 -67 44 -75 48 -8 4 -47 31 -87 60 -271 199 -431 359 -507 507 -75 148 -70 86 -76 865 -3 385 -4 705 -2 711 2 6 18 19 35 27 52 26 167 77 172 77 3 0 35 14 72 31 38 16 83 36 101 44 18 8 49 22 70 31 20 9 51 22 67 29 17 7 48 20 70 30 22 10 54 24 70 31 36 15 104 44 126 54 8 5 76 34 149 65 73 31 141 61 149 65 52 26 108 47 129 49 7 1 72 -24 144 -55z m-3244 -1 c15 -9 35 -25 45 -35 26 -27 57 -98 56 -133 0 -48 -40 -116 -85 -148 -36 -25 -51 -29 -108 -29 -62 0 -71 3 -111 37 -59 48 -85 122 -66 187 16 51 41 85 84 115 41 28 144 32 185 6z m6384 -3 c43 -25 73 -65 89 -119 19 -64 -7 -139 -66 -186 -40 -34 -49 -37 -111 -37 -57 0 -72 4 -108 29 -45 32 -85 100 -85 148 -1 34 30 107 55 133 39 38 69 51 131 51 45 1 71 -4 95 -19z m-6463 -2041 c22 -11 52 -37 68 -57 25 -32 28 -46 28 -107 0 -124 -56 -180 -180 -180 -61 0 -75 3 -107 28 -20 16 -46 46 -57 68 -80 153 95 328 248 248z m6514 5 c136 -69 156 -231 39 -321 -32 -25 -46 -28 -107 -28 -124 0 -180 56 -180 180 0 61 3 75 28 107 54 71 149 98 220 62z"/> <path d="M4410 6364 c-14 -9 -210 -201 -435 -425 -226 -225 -416 -409 -423 -409 -7 0 -17 10 -22 23 -5 12 -26 49 -45 82 -19 33 -39 69 -45 80 -6 11 -19 34 -29 50 -11 17 -32 53 -47 80 -53 98 -85 137 -132 157 -38 17 -51 19 -82 9 -70 -21 -120 -82 -120 -148 0 -24 43 -121 80 -178 10 -16 30 -50 43 -75 14 -25 34 -61 46 -80 11 -19 25 -44 31 -55 6 -11 19 -33 29 -50 11 -16 31 -50 44 -75 14 -25 34 -61 46 -80 11 -19 25 -44 30 -55 20 -45 99 -95 149 -95 16 0 47 13 68 28 69 51 1006 995 1021 1029 40 97 -31 203 -137 203 -25 0 -56 -7 -70 -16z"/> <path d="M1050 4353 c-19 -8 -42 -19 -50 -24 -8 -5 -22 -12 -30 -16 -19 -8 -105 -94 -113 -113 -4 -8 -11 -22 -16 -30 -8 -14 -17 -34 -55 -122 -7 -18 -28 -69 -46 -113 -17 -44 -38 -93 -45 -110 -7 -16 -27 -66 -45 -110 -18 -44 -38 -93 -45 -110 -7 -16 -28 -66 -45 -110 -18 -44 -38 -93 -45 -110 -7 -16 -28 -66 -45 -110 -18 -44 -39 -95 -46 -112 -33 -78 -42 -101 -59 -143 -10 -25 -24 -60 -31 -77 -8 -18 -20 -48 -28 -65 -7 -18 -21 -53 -31 -78 -10 -25 -24 -60 -31 -77 -8 -18 -20 -48 -28 -65 -7 -18 -21 -53 -31 -78 -10 -25 -24 -60 -31 -77 -35 -83 -42 -101 -58 -148 -42 -129 1 -277 111 -382 19 -18 37 -33 40 -33 4 0 14 -6 22 -13 9 -8 52 -28 96 -46 44 -19 95 -40 113 -47 80 -34 99 -42 137 -56 122 -46 172 -52 253 -32 66 17 137 48 148 65 10 17 33 9 106 -34 40 -24 80 -46 88 -50 20 -10 42 -24 115 -72 33 -22 68 -44 77 -50 47 -28 228 -155 247 -173 8 -8 33 -25 55 -39 23 -15 75 -52 116 -83 41 -31 96 -70 123 -88 26 -17 53 -36 60 -42 57 -48 150 -110 188 -124 43 -16 49 -16 85 -1 53 22 80 50 100 102 17 42 16 45 -5 91 -18 39 -42 62 -134 130 -130 96 -290 213 -361 262 -27 19 -70 50 -95 68 -60 43 -178 124 -199 137 -9 6 -55 35 -102 65 -120 77 -123 79 -145 90 -11 6 -33 19 -50 30 -16 11 -39 24 -50 29 -46 20 -47 33 -14 112 17 41 38 89 45 107 8 17 20 47 28 65 7 17 21 52 31 77 10 25 24 60 31 78 8 17 20 47 28 65 7 17 21 52 31 77 10 25 24 60 31 78 8 17 20 47 28 65 7 17 21 52 31 77 17 42 26 65 59 143 7 17 28 68 46 112 17 44 38 94 45 110 7 17 27 66 45 110 17 44 38 94 45 110 7 17 16 38 19 49 5 14 12 17 34 11 15 -3 34 -13 43 -21 8 -8 20 -14 26 -14 5 0 32 -12 59 -26 27 -15 63 -30 79 -34 17 -5 44 -13 60 -19 252 -86 594 -86 874 1 115 35 249 51 331 39 142 -22 184 -31 191 -43 11 -17 7 -20 -72 -69 -39 -24 -81 -51 -94 -59 -12 -8 -66 -42 -120 -75 -53 -33 -107 -67 -120 -75 -12 -8 -66 -42 -120 -75 -53 -33 -109 -68 -123 -77 -15 -10 -34 -21 -42 -25 -84 -40 -178 -138 -208 -218 -48 -124 -11 -281 91 -389 39 -41 140 -116 156 -116 4 0 12 -5 19 -12 22 -22 149 -61 239 -73 55 -7 201 16 261 41 18 8 39 14 47 14 7 0 26 6 42 14 15 8 57 28 93 44 36 17 109 51 162 76 54 25 102 46 107 46 5 0 22 6 38 14 78 39 227 77 303 76 48 -1 182 -29 240 -52 52 -19 238 -116 305 -158 17 -10 50 -30 75 -43 25 -14 61 -34 80 -46 19 -11 44 -25 55 -31 11 -6 34 -19 50 -30 17 -11 37 -23 45 -27 8 -4 47 -25 85 -48 39 -22 77 -44 85 -48 8 -4 29 -16 45 -27 17 -11 37 -23 45 -27 8 -4 47 -25 85 -48 39 -22 77 -44 85 -48 8 -4 29 -16 45 -27 17 -11 40 -24 51 -29 40 -18 93 -72 104 -107 14 -41 5 -101 -19 -130 -24 -30 -74 -54 -112 -54 -31 0 -109 35 -186 83 -21 13 -45 27 -53 30 -8 4 -28 16 -45 27 -16 11 -37 23 -45 27 -8 4 -46 26 -85 48 -38 23 -77 44 -85 48 -8 4 -28 16 -45 27 -16 11 -37 23 -45 27 -8 4 -46 25 -85 48 -38 22 -77 44 -85 48 -28 14 -58 33 -75 47 -10 8 -41 14 -78 14 -72 1 -106 -19 -139 -81 -49 -90 5 -171 167 -253 11 -5 27 -14 35 -20 22 -14 162 -95 180 -103 8 -4 29 -16 45 -27 17 -11 37 -23 45 -27 76 -38 203 -119 220 -140 11 -14 25 -42 31 -63 9 -31 8 -43 -10 -81 -28 -60 -60 -81 -124 -81 -51 0 -79 10 -162 62 -16 10 -50 30 -75 43 -25 14 -61 34 -80 46 -19 11 -44 25 -55 31 -11 6 -33 19 -50 29 -16 11 -52 32 -80 47 -89 49 -100 55 -130 74 -16 11 -36 23 -44 26 -7 4 -59 33 -114 65 -79 46 -111 59 -143 59 -58 0 -116 -44 -139 -104 -17 -44 -17 -48 -1 -91 21 -53 58 -85 176 -148 25 -14 61 -34 80 -46 19 -11 44 -25 55 -31 11 -6 34 -19 50 -30 17 -11 37 -23 45 -27 8 -4 47 -25 85 -48 39 -22 77 -44 85 -48 8 -4 29 -16 45 -27 17 -11 40 -24 51 -29 41 -18 64 -60 64 -115 -1 -54 -14 -77 -62 -109 -42 -26 -77 -21 -160 27 -42 24 -83 46 -90 50 -7 3 -26 15 -43 25 -16 11 -52 32 -80 47 -89 49 -100 55 -130 74 -16 11 -37 23 -45 27 -8 4 -58 32 -110 63 -52 31 -102 59 -110 63 -8 4 -28 16 -45 26 -78 51 -106 61 -164 61 -53 0 -61 -3 -94 -36 -26 -26 -38 -49 -43 -79 -12 -86 24 -138 138 -198 29 -16 67 -37 83 -47 17 -11 39 -24 50 -30 11 -6 36 -20 55 -31 19 -12 55 -32 80 -46 25 -13 59 -33 75 -43 17 -10 48 -28 70 -40 22 -12 57 -36 78 -52 33 -26 37 -35 37 -75 0 -62 -40 -103 -100 -103 -23 0 -54 6 -68 14 -15 8 -70 34 -122 59 -208 98 -356 169 -370 178 -8 5 -22 12 -30 15 -8 3 -35 16 -60 29 -25 13 -81 42 -125 64 -44 23 -107 57 -140 76 -33 18 -82 45 -110 60 -27 14 -63 34 -80 45 -16 10 -46 28 -65 38 -19 11 -71 41 -115 66 -91 52 -133 58 -189 25 -98 -58 -102 -187 -7 -257 17 -12 32 -22 35 -22 4 0 183 -103 226 -130 8 -5 35 -20 60 -33 25 -14 61 -34 80 -45 30 -18 142 -76 300 -157 45 -23 247 -121 472 -229 147 -71 226 -96 304 -96 71 0 164 27 223 65 47 29 121 104 121 121 0 6 6 17 14 23 7 6 16 24 20 39 11 52 20 57 93 54 70 -3 165 19 233 54 86 43 187 180 208 281 9 41 25 49 104 52 35 1 67 12 146 50 89 43 183 165 212 276 17 65 26 75 64 75 55 0 147 31 225 75 75 42 181 207 181 280 0 38 35 85 64 85 8 0 27 6 43 14 15 8 48 22 73 31 25 9 58 23 73 31 16 8 35 14 42 14 7 0 26 6 42 14 15 8 48 22 73 31 25 9 59 23 75 30 17 7 50 20 75 30 25 9 60 23 78 31 46 20 65 18 92 -11 42 -45 161 -89 240 -89 63 0 148 27 315 99 17 7 66 28 110 46 44 18 87 38 96 46 8 7 19 13 23 13 13 0 95 89 113 123 75 141 72 226 -19 437 -9 19 -23 55 -33 80 -20 51 -36 90 -57 140 -9 19 -23 55 -33 80 -10 25 -24 60 -31 78 -8 17 -20 47 -28 65 -7 17 -21 52 -31 77 -17 42 -26 65 -59 142 -7 18 -28 69 -46 113 -17 44 -38 94 -45 110 -7 17 -27 66 -45 110 -17 44 -37 94 -45 110 -7 17 -20 50 -30 75 -18 45 -30 74 -58 140 -9 19 -30 71 -47 115 -18 44 -39 95 -46 113 -38 88 -47 108 -55 122 -5 8 -12 22 -16 30 -16 34 -114 121 -153 136 -8 3 -30 12 -48 20 -45 19 -180 18 -234 -2 -82 -31 -193 -76 -220 -90 -14 -8 -31 -14 -38 -14 -6 0 -50 -19 -98 -42 -144 -69 -222 -174 -230 -310 -4 -68 -10 -78 -56 -104 -63 -37 -227 -114 -241 -114 -9 0 -24 -4 -34 -9 -33 -18 -216 -43 -321 -44 -106 -1 -212 13 -307 39 -29 8 -77 20 -105 28 -48 14 -130 27 -248 41 -53 6 -303 -23 -327 -38 -6 -4 -31 -11 -55 -16 -50 -11 -112 -33 -182 -66 -81 -37 -93 -38 -139 -17 -74 34 -186 75 -247 92 -97 25 -308 51 -365 44 -132 -16 -196 -27 -242 -40 -29 -8 -77 -21 -105 -29 -29 -7 -73 -17 -98 -20 -213 -28 -213 -28 -412 0 -53 8 -106 19 -117 24 -11 6 -27 11 -35 11 -20 0 -153 62 -216 101 l-48 29 -4 78 c-7 145 -82 249 -230 320 -48 23 -92 42 -98 42 -7 0 -24 6 -38 14 -27 14 -138 59 -220 90 -56 21 -194 20 -242 -1z m188 -297 c15 -8 47 -22 72 -31 25 -10 59 -23 75 -31 17 -7 55 -22 85 -34 86 -35 110 -56 110 -95 0 -19 -7 -51 -16 -72 -32 -76 -42 -99 -59 -143 -17 -42 -26 -65 -59 -142 -7 -18 -28 -69 -46 -113 -18 -44 -38 -93 -45 -110 -7 -16 -28 -66 -45 -110 -18 -44 -38 -93 -45 -110 -7 -16 -28 -66 -45 -110 -18 -44 -38 -93 -45 -110 -7 -16 -28 -66 -45 -110 -18 -44 -39 -95 -46 -112 -33 -78 -42 -101 -59 -143 -10 -25 -24 -61 -33 -80 -21 -50 -37 -89 -57 -140 -58 -149 -82 -194 -114 -213 -28 -16 -34 -17 -63 -4 -18 8 -53 22 -78 32 -43 17 -74 29 -142 59 -18 8 -48 20 -67 27 -50 19 -91 57 -91 85 0 13 7 40 16 61 40 92 64 149 89 213 10 25 24 60 31 78 8 17 20 47 28 65 7 17 21 52 31 77 10 25 24 60 31 78 8 17 20 47 28 65 7 17 21 52 31 77 17 42 26 65 59 143 7 17 28 68 46 112 17 44 37 94 45 110 7 17 20 50 30 75 20 51 36 90 57 140 9 19 23 55 33 80 20 53 36 92 57 140 9 19 30 71 48 115 68 170 85 195 138 195 19 0 46 -6 60 -14z m5298 -8 c23 -26 39 -59 84 -173 18 -44 39 -96 48 -115 21 -48 37 -87 57 -140 10 -25 23 -58 30 -75 8 -16 28 -66 45 -110 18 -44 39 -95 46 -112 33 -78 42 -101 59 -143 10 -25 24 -60 31 -77 8 -18 20 -48 28 -65 7 -18 21 -53 31 -78 17 -42 26 -65 59 -142 7 -18 28 -69 46 -113 17 -44 38 -93 45 -110 7 -16 27 -66 45 -110 32 -82 45 -111 74 -178 9 -21 16 -48 16 -61 0 -28 -41 -66 -91 -85 -19 -7 -49 -19 -66 -27 -69 -30 -100 -42 -143 -59 -25 -10 -60 -24 -78 -32 -29 -13 -35 -12 -63 4 -32 19 -56 64 -114 213 -10 25 -24 60 -31 78 -8 17 -20 47 -28 65 -7 17 -21 52 -31 77 -17 42 -26 65 -59 143 -7 17 -28 68 -46 112 -17 44 -38 94 -45 110 -7 17 -27 66 -45 110 -17 44 -37 94 -45 110 -7 17 -20 50 -30 75 -17 42 -26 65 -59 143 -7 17 -28 68 -46 112 -17 44 -38 94 -45 110 -7 17 -27 66 -45 110 -18 44 -38 94 -45 110 -7 17 -20 47 -29 68 -9 21 -16 53 -16 72 0 28 6 39 37 60 21 14 43 25 50 25 7 0 41 13 75 28 35 16 83 37 108 46 25 10 56 24 70 32 40 21 93 18 116 -8z m-652 -534 c9 -8 16 -21 16 -29 0 -7 6 -26 14 -42 8 -15 29 -64 46 -108 18 -44 39 -95 46 -112 33 -78 42 -101 59 -143 10 -25 24 -60 31 -77 8 -18 20 -48 28 -65 7 -18 21 -53 31 -78 10 -25 24 -60 31 -77 8 -18 20 -48 28 -65 7 -18 21 -53 31 -78 10 -25 24 -60 31 -77 8 -18 20 -48 28 -65 7 -18 21 -53 31 -78 17 -43 28 -71 59 -142 41 -96 56 -139 52 -146 -5 -9 -57 -34 -111 -55 -22 -8 -76 -29 -120 -47 -44 -18 -98 -39 -120 -47 -22 -8 -53 -21 -68 -29 -16 -8 -36 -14 -46 -14 -9 0 -21 -4 -27 -9 -8 -8 -62 -30 -115 -47 -9 -3 -36 14 -68 44 -43 41 -180 131 -250 165 -9 4 -29 16 -46 27 -16 11 -37 23 -45 27 -8 4 -46 25 -85 48 -38 22 -77 44 -85 48 -8 4 -28 16 -45 27 -16 11 -37 23 -45 27 -8 4 -46 25 -85 48 -38 22 -77 44 -85 48 -8 4 -28 16 -45 27 -16 11 -37 23 -45 27 -17 7 -156 88 -180 103 -8 5 -37 21 -65 35 -27 14 -57 30 -65 34 -8 5 -33 17 -55 26 -22 10 -52 24 -67 32 -14 7 -33 13 -42 13 -8 0 -30 6 -48 14 -47 20 -202 46 -275 46 -88 0 -275 -39 -358 -75 -16 -7 -50 -20 -75 -30 -25 -10 -85 -37 -135 -60 -212 -100 -265 -123 -333 -141 -111 -29 -206 -12 -294 53 -101 74 -103 105 -10 165 127 83 155 101 187 118 11 5 54 33 95 60 41 27 84 55 95 60 11 6 32 18 47 28 15 9 59 37 99 62 39 25 83 53 98 62 14 10 35 22 46 28 11 6 32 18 47 28 24 15 122 77 196 124 23 14 80 46 141 78 50 27 153 70 167 70 8 0 24 5 35 11 34 18 180 39 269 39 80 0 199 -17 265 -39 228 -74 568 -86 775 -26 25 7 56 15 70 18 71 14 270 103 303 136 15 15 23 14 41 -5z"/> </g> </svg> 