 <svg  version="1.0" xmlns="http://www.w3.org/2000/svg"  width="900.000000pt" height="900.000000pt" viewBox="0 0 900.000000 900.000000"  preserveAspectRatio="xMidYMid meet">  <g transform="translate(0.000000,900.000000) scale(0.100000,-0.100000)" fill="#ffffff" stroke="none"> <path d="M4127 8986 c-4 -10 -32 -16 -94 -20 -90 -6 -228 -26 -363 -51 -41 -8 -86 -16 -100 -19 -67 -11 -163 -36 -345 -87 -82 -23 -139 -41 -230 -74 -55 -20 -111 -40 -125 -44 -98 -33 -463 -206 -570 -269 -19 -11 -53 -30 -74 -42 -43 -23 -191 -118 -246 -157 -19 -13 -64 -44 -100 -68 -36 -24 -117 -85 -180 -136 -436 -347 -784 -744 -1078 -1229 -118 -195 -260 -490 -349 -725 -8 -22 -21 -55 -29 -73 -8 -18 -14 -39 -14 -47 0 -8 -6 -29 -14 -47 -13 -31 -20 -54 -59 -193 -68 -239 -122 -526 -146 -780 -14 -143 -14 -727 0 -870 20 -212 67 -482 116 -670 28 -108 73 -262 85 -295 5 -14 20 -56 33 -95 36 -108 122 -320 155 -384 5 -9 30 -61 57 -116 42 -87 114 -220 143 -265 6 -8 13 -22 17 -30 8 -18 105 -171 140 -220 13 -19 44 -64 68 -100 232 -344 710 -822 1055 -1055 36 -24 98 -67 138 -94 41 -28 75 -51 77 -51 2 0 21 -12 42 -26 21 -14 47 -30 58 -35 11 -5 34 -18 50 -28 47 -30 121 -70 240 -129 61 -29 117 -57 126 -62 63 -33 276 -119 384 -155 39 -13 81 -28 95 -33 23 -9 59 -20 185 -55 239 -68 526 -122 780 -146 143 -14 727 -14 870 0 111 10 264 32 365 51 30 5 75 14 100 19 107 20 176 37 365 90 82 23 139 41 230 74 55 20 111 40 125 44 27 9 166 69 240 103 141 64 333 164 400 208 8 6 22 13 30 17 15 6 121 73 195 123 514 343 922 751 1265 1265 56 84 120 184 120 189 0 2 26 49 57 103 32 54 80 143 106 198 27 55 52 107 57 116 33 64 119 276 155 384 13 39 28 81 33 95 12 32 56 184 85 295 48 181 102 495 113 648 4 62 10 90 20 94 12 4 14 65 14 363 0 298 -2 359 -14 363 -10 4 -16 32 -20 94 -11 153 -65 467 -113 648 -29 111 -73 263 -85 295 -5 14 -20 56 -33 95 -36 108 -121 318 -155 384 -4 9 -37 75 -73 146 -35 72 -74 146 -85 165 -11 19 -30 53 -42 75 -12 22 -35 59 -51 83 -16 24 -29 45 -29 47 0 3 -21 35 -47 72 -25 38 -68 100 -94 138 -68 98 -216 283 -312 390 -298 331 -609 593 -982 826 -39 24 -79 50 -90 57 -11 6 -27 15 -35 19 -8 4 -46 25 -85 48 -69 40 -318 165 -329 165 -3 0 -34 13 -68 28 -35 16 -81 36 -103 44 -145 56 -248 93 -300 108 -247 72 -366 103 -465 120 -25 4 -70 12 -100 18 -114 22 -258 42 -343 48 -62 4 -90 10 -94 20 -4 12 -65 14 -363 14 -298 0 -359 -2 -363 -14z m-1301 -1935 c228 -61 373 -220 419 -457 15 -78 16 -102 6 -160 -15 -83 -47 -183 -67 -205 -8 -8 -14 -20 -14 -26 0 -6 -29 -42 -64 -80 -81 -87 -187 -143 -327 -173 -119 -25 -177 -25 -290 0 -225 50 -368 173 -438 375 -29 83 -30 275 -1 357 65 187 204 315 397 368 96 26 283 26 379 1z m3255 -1505 c112 -17 182 -33 227 -52 18 -8 37 -14 42 -14 20 0 167 -74 230 -116 154 -102 288 -257 378 -439 47 -94 112 -271 112 -303 0 -9 6 -38 14 -66 44 -155 46 -212 46 -1314 0 -948 -2 -1050 -16 -1056 -9 -3 -248 -6 -533 -6 -389 0 -520 3 -529 12 -9 9 -12 228 -12 923 -1 1067 -4 1117 -86 1291 -70 150 -174 236 -332 275 -97 24 -177 24 -272 0 -182 -44 -302 -143 -403 -331 -66 -124 -67 -134 -67 -1206 0 -859 -2 -952 -16 -958 -28 -11 -1034 -7 -1054 4 -18 10 -19 52 -14 1648 l5 1637 539 3 540 2 0 -214 c0 -118 4 -217 9 -220 4 -3 22 15 40 39 17 24 37 50 44 57 7 7 35 39 62 72 80 95 230 202 361 258 182 78 460 108 685 74z m-2903 -1705 c1 -1199 -1 -1637 -9 -1647 -9 -12 -106 -14 -529 -14 -285 0 -525 3 -534 6 -15 6 -16 160 -16 1650 l0 1644 543 -2 542 -3 3 -1634z"/> </g> </svg> 