 <svg  version="1.0" xmlns="http://www.w3.org/2000/svg"  width="1536.000000pt" height="1536.000000pt" viewBox="0 0 1536.000000 1536.000000"  preserveAspectRatio="xMidYMid meet">  <g transform="translate(0.000000,1536.000000) scale(0.100000,-0.100000)" fill="#ee7500" stroke="none"> <path d="M3617 15346 c-4 -10 -32 -16 -94 -21 -80 -6 -206 -25 -368 -55 -117 -22 -332 -78 -408 -106 -23 -8 -55 -19 -72 -24 -16 -4 -55 -18 -85 -30 -30 -12 -66 -25 -80 -30 -162 -53 -517 -236 -755 -390 -247 -159 -575 -449 -799 -705 -67 -77 -278 -353 -313 -410 -128 -209 -167 -276 -254 -445 -22 -42 -118 -265 -129 -300 -5 -14 -18 -50 -30 -80 -105 -273 -184 -620 -219 -960 -15 -144 -15 -6240 -1 -6378 38 -348 117 -696 220 -962 12 -30 25 -66 30 -80 34 -106 182 -411 275 -570 290 -493 721 -951 1196 -1271 71 -48 65 -44 196 -124 163 -98 467 -248 583 -285 14 -5 50 -18 80 -30 30 -12 69 -26 85 -30 17 -5 49 -16 72 -24 171 -63 547 -138 848 -170 134 -14 475 -16 3149 -16 3194 0 3050 -2 3381 46 258 37 601 125 790 201 432 176 675 308 975 532 555 413 1003 977 1270 1596 29 66 56 131 60 145 5 14 18 50 30 80 12 30 26 69 30 85 5 17 16 49 24 72 46 124 104 377 140 608 47 305 46 198 46 3387 0 2634 -2 3010 -15 3138 -42 395 -117 730 -225 1010 -12 30 -25 66 -30 80 -4 14 -31 79 -59 144 -351 813 -993 1505 -1781 1919 -52 27 -99 53 -105 57 -12 8 -272 118 -370 156 -270 104 -679 198 -953 220 -57 4 -85 11 -89 20 -8 21 -6238 21 -6246 0z m6206 -1331 c273 -37 487 -89 677 -167 464 -189 852 -486 1140 -874 120 -162 158 -221 228 -356 155 -296 241 -576 287 -933 13 -106 15 -465 15 -3085 0 -3129 1 -3040 -42 -3260 -56 -288 -117 -471 -237 -710 -59 -116 -66 -130 -133 -240 -132 -215 -405 -512 -625 -678 -162 -123 -266 -187 -448 -275 -240 -117 -377 -163 -665 -221 -238 -48 -112 -46 -3280 -46 -3330 0 -3061 -6 -3419 76 -629 145 -1225 569 -1593 1134 -213 327 -347 705 -403 1135 -13 106 -15 465 -15 3085 0 2626 2 2979 15 3085 48 369 129 631 292 943 233 448 646 861 1095 1095 297 155 579 243 928 291 162 22 6020 23 6183 1z"/> <path d="M9075 10855 c-71 -18 -122 -42 -180 -83 -27 -19 -728 -713 -1557 -1541 l-1508 -1506 -597 597 c-329 328 -609 606 -623 616 -36 28 -137 78 -194 96 -67 22 -245 22 -312 0 -207 -67 -344 -210 -405 -422 -47 -164 -1 -354 121 -506 57 -71 1606 -1618 1665 -1663 108 -82 224 -117 370 -111 115 5 196 29 284 84 38 24 622 602 1807 1787 1667 1668 1752 1755 1784 1821 69 145 85 272 50 404 -58 217 -209 372 -417 426 -72 19 -216 19 -288 1z"/> </g> </svg> 